<?xml version="1.0" encoding="UTF-8"?>
<svg version="1.1" xmlns="http://www.w3.org/2000/svg" width="512" height="512">
<path d="M0 0 C3.41502511 1.5813803 6.67504811 3.42072192 9.93310547 5.30078125 C12.76572375 6.92799458 15.62460528 8.50231687 18.48828125 10.07421875 C23.0921027 12.60720276 27.68568587 15.15763962 32.26953125 17.7265625 C38.09541991 20.99149816 43.9325859 24.23561639 49.77416992 27.47241211 C60.12039697 33.20643878 70.43773771 38.98841598 80.72851562 44.82128906 C92.58406532 51.53344211 104.5059894 58.12624063 116.421875 64.73046875 C145.62105904 80.91374533 145.62105904 80.91374533 158.46020508 88.22998047 C162.65398464 90.61804824 166.85283111 92.97730917 171.125 95.22265625 C179.48747521 99.65128492 187.70993659 104.14653467 191.49116611 113.32645035 C192.6220923 117.46275292 192.70889609 121.16791901 192.69602966 125.43304443 C192.70126634 126.29682842 192.70650302 127.16061242 192.71189839 128.05057168 C192.72687273 130.938384 192.72760298 133.82601874 192.72827148 136.71386719 C192.73589471 138.78717344 192.74432249 140.86047687 192.75349426 142.93377686 C192.77543051 148.56201814 192.78423706 154.1902051 192.78932071 159.81848431 C192.79296543 163.33664022 192.79920612 166.85478194 192.8063221 170.37293243 C192.83081396 182.65194829 192.84386784 194.93092191 192.84741211 207.20996094 C192.85104673 218.64686562 192.88093771 230.08350183 192.92281669 241.52032447 C192.95753333 251.34643209 192.97296079 261.17245079 192.97365814 270.99861932 C192.97445051 276.86419991 192.9831709 282.72950701 193.01165581 288.59502411 C193.03785953 294.11418678 193.04002844 299.63284964 193.02400017 305.1520462 C193.02218751 307.17323396 193.02885972 309.19445061 193.04481888 311.21557617 C193.19524303 331.50938669 193.19524303 331.50938669 187.421875 338.73046875 C181.84859378 344.09450627 174.72006607 347.54182577 167.984375 351.23046875 C165.74861967 352.46860871 163.51294485 353.70689407 161.27734375 354.9453125 C159.57070557 355.88673096 159.57070557 355.88673096 157.82958984 356.84716797 C152.47319806 359.8074206 147.13515397 362.80021469 141.796875 365.79296875 C140.76183838 366.37240234 139.72680176 366.95183594 138.66040039 367.54882812 C131.73786649 371.42566369 124.82675572 375.32229202 117.921875 379.23046875 C106.82714796 385.51010714 95.70574107 391.74147573 84.57910156 397.96435547 C79.35893791 400.88445011 74.14046727 403.80756707 68.921875 406.73046875 C62.64928652 410.24370727 56.37633381 413.75628624 50.1015625 417.265625 C47.99998444 418.44137843 45.89842187 419.61715956 43.796875 420.79296875 C42.25640503 421.65438477 42.25640503 421.65438477 40.68481445 422.53320312 C34.47587407 426.00868163 28.28265499 429.51047127 22.09985352 433.03222656 C18.33648411 435.16938042 14.56087027 437.28424359 10.78320312 439.39599609 C8.77609996 440.5302833 6.7919107 441.69346003 4.8125 442.875 C-2.57779333 447.04914716 -9.15956527 448.31735381 -17.578125 446.73046875 C-23.2522711 444.62780451 -28.34604539 441.74550958 -33.578125 438.73046875 C-35.32699272 437.75058058 -37.0770558 436.77282366 -38.828125 435.796875 C-42.71461942 433.62171205 -46.58944828 431.42735752 -50.45703125 429.21875 C-56.6036057 425.70965774 -62.77523268 422.24655699 -68.953125 418.79296875 C-71.0546884 417.61718912 -73.1562509 416.44140786 -75.2578125 415.265625 C-76.30163086 414.68184082 -77.34544922 414.09805664 -78.42089844 413.49658203 C-84.68141408 409.99452743 -90.93961112 406.48833122 -97.19824219 402.98291016 C-102.43087548 400.0523409 -107.66406722 397.12277831 -112.8984375 394.1953125 C-123.91840067 388.03067964 -134.92608884 381.84537164 -145.91455078 375.62475586 C-151.90749958 372.23415706 -157.90916751 368.85960081 -163.91845703 365.49804688 C-166.01375792 364.32589586 -168.10849114 363.15272946 -170.20263672 361.97851562 C-175.46791215 359.026333 -180.73947026 356.08657888 -186.0234375 353.16796875 C-188.08340475 352.02226381 -190.14330325 350.87643526 -192.203125 349.73046875 C-193.14478516 349.21484375 -194.08644531 348.69921875 -195.05664062 348.16796875 C-204.12988834 343.10014748 -210.20747147 338.86294341 -213.578125 328.73046875 C-214.0845737 325.6790419 -214.12477359 322.71765299 -214.0927887 319.62916565 C-214.09973422 318.75873483 -214.10667975 317.88830401 -214.11383575 316.9914965 C-214.13201088 314.09896306 -214.12186805 311.20725863 -214.11157227 308.31469727 C-214.11863553 306.23109324 -214.12738225 304.14749435 -214.13768005 302.06390381 C-214.16013775 296.42129885 -214.15724271 290.77897486 -214.14835858 285.13634229 C-214.14324022 280.41966099 -214.15054815 275.7030321 -214.15783066 270.9863562 C-214.17481814 259.85666136 -214.17127529 248.72710368 -214.15454102 237.59741211 C-214.13761866 226.12804283 -214.15345866 214.65905413 -214.1857639 203.18972641 C-214.21248111 193.32956907 -214.21973007 183.46953003 -214.21124882 173.60934013 C-214.20632614 167.72594533 -214.20849986 161.84277948 -214.22903633 155.95941353 C-214.24742684 150.42622137 -214.24139308 144.89357561 -214.21683693 139.3604126 C-214.21183989 137.33439848 -214.2152899 135.30834249 -214.22798538 133.28236198 C-214.34359718 113.24130383 -214.34359718 113.24130383 -208.578125 105.73046875 C-206.26049805 103.42041016 -206.26049805 103.42041016 -203.90234375 101.95703125 C-203.03013184 101.40563477 -202.15791992 100.85423828 -201.25927734 100.28613281 C-200.37449707 99.77276367 -199.4897168 99.25939453 -198.578125 98.73046875 C-197.75393066 98.25061523 -196.92973633 97.77076172 -196.08056641 97.27636719 C-193.53738805 95.84498538 -190.97051416 94.46947997 -188.390625 93.10546875 C-186.44187525 92.05884133 -184.49398481 91.01061266 -182.546875 89.9609375 C-181.556875 89.42774902 -180.566875 88.89456055 -179.546875 88.34521484 C-174.79520408 85.76071225 -170.09266212 83.09141154 -165.390625 80.41796875 C-156.97893723 75.64152977 -148.5390603 70.91911954 -140.078125 66.23046875 C-131.72398248 61.59991391 -123.38693628 56.94188967 -115.078125 52.23046875 C-105.62445622 46.86986886 -96.13014683 41.58509624 -86.625 36.31640625 C-79.42353855 32.3210749 -72.2421778 28.29245726 -65.078125 24.23046875 C-57.04594592 19.67906615 -48.99851483 15.15598126 -40.93212891 10.66552734 C-39.19111961 9.69608554 -37.45101477 8.72501999 -35.7109375 7.75390625 C-32.673884 6.0658441 -29.62839711 4.39449589 -26.578125 2.73046875 C-25.81483887 2.30362793 -25.05155273 1.87678711 -24.26513672 1.43701172 C-16.41342265 -2.78184785 -8.30636424 -2.94712705 0 0 Z " fill="#3949AA" transform="translate(266.578125,33.26953125)"/>
<path d="M0 0 C0.78052734 0.20399414 1.56105469 0.40798828 2.36523438 0.61816406 C41.97862455 11.14190693 72.29345941 33.94018912 95 68 C95 68.99 95 69.98 95 71 C94.36835938 71.35078613 93.73671875 71.70157227 93.0859375 72.06298828 C81.09810225 78.72841469 69.15012495 85.44556616 57.3125 92.375 C56.31847168 92.95668945 55.32444336 93.53837891 54.30029297 94.13769531 C52.40233319 95.24905302 50.50453838 96.36069251 48.60693359 97.47265625 C44.95081495 99.61469392 41.29303804 101.75343064 37.625 103.875 C36.03558594 104.79925781 36.03558594 104.79925781 34.4140625 105.7421875 C32 107 32 107 30 107 C28.70925452 105.35912126 27.49238973 103.65981448 26.3125 101.9375 C14.22639028 85.06865167 -2.87043574 76.13292993 -23.18359375 72.5078125 C-43.63448737 69.78660864 -63.08307252 75.38800282 -79.4375 87.875 C-92.60376586 99.25488808 -100.65518509 112.19242653 -105 129 C-105.22429687 129.66902344 -105.44859375 130.33804688 -105.6796875 131.02734375 C-110.54679563 146.26205891 -105.86937719 164.95734174 -99.5390625 179.09375 C-89.88721482 197.31957405 -74.73819432 210.62540806 -55 217 C-35.91485602 222.52822798 -14.63475223 220.09565564 2.9375 211.1875 C14.27209373 204.44847529 24.14391543 195.32744406 31 184 C34.82644949 185.4481545 38.37703558 187.19011978 41.98046875 189.125 C43.13595215 189.74431396 44.29143555 190.36362793 45.48193359 191.00170898 C46.71722046 191.66762412 47.95240727 192.33372488 49.1875 193 C50.45651089 193.6824327 51.72555407 194.36480536 52.99462891 195.04711914 C67.44676869 202.8271461 81.77492764 210.81257893 96 219 C95.50039108 223.75520632 93.26803956 226.9413855 90.5 230.6875 C90.05366211 231.30181885 89.60732422 231.9161377 89.14746094 232.54907227 C85.69607908 237.22673132 81.97898175 241.58803172 78.0078125 245.8359375 C76.28645685 247.69125078 74.70342909 249.58720874 73.125 251.5625 C52.38593908 275.81473517 20.18782736 287.65067953 -10 294 C-10.75966064 294.18030762 -11.51932129 294.36061523 -12.30200195 294.54638672 C-15.73215731 295.1230973 -19.11384537 295.18175068 -22.58203125 295.203125 C-23.31387131 295.20882507 -24.04571136 295.21452515 -24.79972839 295.22039795 C-26.35043916 295.22982207 -27.90116971 295.23637162 -29.4519043 295.24023438 C-31.7671482 295.24981238 -34.08145334 295.28080421 -36.39648438 295.3125 C-71.97171021 295.56461258 -106.7415447 281.1434594 -132.73046875 257.078125 C-134.62603879 255.34242231 -136.55737095 253.72910324 -138.5625 252.125 C-143.37679024 248.02268226 -147.13913926 242.97830224 -151 238 C-151.67160156 237.1440625 -152.34320313 236.288125 -153.03515625 235.40625 C-164.50727203 220.26214487 -171.92982881 203.53505917 -177.25 185.375 C-177.61967896 184.12360229 -177.61967896 184.12360229 -177.99682617 182.84692383 C-181.25597352 171.26022126 -182.35315313 159.7910607 -182.31567383 147.79907227 C-182.31251804 145.69950093 -182.33606962 143.60135152 -182.36132812 141.50195312 C-182.54569519 101.71205571 -163.76868047 65.08942597 -136.28515625 37.25 C-117.60251094 19.69215419 -94.76427877 7.39078162 -70 1 C-68.92234375 0.71125 -67.8446875 0.4225 -66.734375 0.125 C-46.27851612 -5.22024956 -20.49884716 -5.57703844 0 0 Z " fill="#FEFEFE" transform="translate(289,110)"/>
<path d="M0 0 C3.41502511 1.5813803 6.67504811 3.42072192 9.93310547 5.30078125 C12.76572375 6.92799458 15.62460528 8.50231687 18.48828125 10.07421875 C23.0921027 12.60720276 27.68568587 15.15763962 32.26953125 17.7265625 C38.09541991 20.99149816 43.9325859 24.23561639 49.77416992 27.47241211 C60.12039697 33.20643878 70.43773771 38.98841598 80.72851562 44.82128906 C92.58406532 51.53344211 104.5059894 58.12624063 116.421875 64.73046875 C131.38249422 73.02220178 146.32835805 81.33624657 161.203125 89.78125 C164.54515818 91.67650227 167.89760343 93.54977715 171.265625 95.3984375 C172.00530518 95.80658691 172.74498535 96.21473633 173.50708008 96.63525391 C174.85275323 97.37630397 176.20130579 98.11216388 177.5534668 98.84130859 C181.01965689 100.75607426 183.86757439 102.68178738 186.421875 105.73046875 C186.421875 106.39046875 186.421875 107.05046875 186.421875 107.73046875 C183.57667017 109.35630008 180.73146048 110.98212289 177.88623047 112.60791016 C175.38514857 114.03708791 172.88418536 115.46647308 170.38330078 116.89599609 C164.45178251 120.28627546 158.51977804 123.67568087 152.58422852 127.05889893 C150.08696434 128.48239713 147.59015977 129.90670043 145.09338379 131.33105469 C143.34232161 132.32955396 141.59060301 133.32690177 139.83886719 134.32421875 C133.949968 137.68432459 128.11057543 141.0974319 122.35205078 144.67724609 C120.421875 145.73046875 120.421875 145.73046875 118.421875 145.73046875 C118.091875 146.39046875 117.761875 147.05046875 117.421875 147.73046875 C117.05449219 146.98216797 117.05449219 146.98216797 116.6796875 146.21875 C108.4132038 130.34140027 95.53966018 116.51821138 81.421875 105.73046875 C80.57109375 105.06402344 79.7203125 104.39757812 78.84375 103.7109375 C63.70650698 92.22204198 46.95937099 84.80135384 28.796875 79.48046875 C27.96260986 79.23401611 27.12834473 78.98756348 26.26879883 78.73364258 C14.68209626 75.47449523 3.2129357 74.37731562 -8.77905273 74.41479492 C-10.87862407 74.41795071 -12.97677348 74.39439913 -15.07617188 74.36914062 C-50.18005844 74.20648626 -84.90818 88.87839476 -110.4140625 112.72265625 C-112.26937578 114.4440119 -114.16533374 116.02703966 -116.140625 117.60546875 C-139.54140851 137.67109386 -154.94909616 173.05981293 -158.3972168 203.2409668 C-160.78801868 236.14111087 -155.31173109 264.6971561 -141.578125 294.73046875 C-150.05011867 300.03853619 -158.61775587 305.05640035 -167.390625 309.85546875 C-177.70182536 315.5255466 -187.89417762 321.3533381 -197.97583008 327.42626953 C-198.90419678 327.97782715 -199.83256348 328.52938477 -200.7890625 329.09765625 C-201.59649902 329.58347168 -202.40393555 330.06928711 -203.23583984 330.56982422 C-205.72412937 331.80281655 -207.8240268 332.4072395 -210.578125 332.73046875 C-212.578125 331.73046875 -212.578125 331.73046875 -213.578125 328.73046875 C-213.68277207 325.92919274 -213.73031028 323.15236802 -213.73202515 320.35069275 C-213.7364074 319.48538848 -213.74078965 318.62008421 -213.7453047 317.7285586 C-213.75870099 314.81765343 -213.76487349 311.90677853 -213.77099609 308.99584961 C-213.77889653 306.9131354 -213.78716544 304.83042257 -213.79577637 302.74771118 C-213.82200748 295.89692494 -213.83730702 289.04613256 -213.8515625 282.1953125 C-213.85692209 279.83702656 -213.8622996 277.47874065 -213.86769485 275.12045479 C-213.88932688 265.30928928 -213.90806282 255.49812543 -213.91931725 245.6869421 C-213.93555042 231.62777376 -213.96870947 217.56888207 -214.02571809 203.50981802 C-214.06443535 193.62433269 -214.08395219 183.7389213 -214.08923781 173.85336214 C-214.09288933 167.94971742 -214.10488958 162.0463677 -214.13734055 156.1428051 C-214.16745151 150.58512476 -214.17372193 145.02791743 -214.16195679 139.47017288 C-214.1617363 137.4344678 -214.17002098 135.39874059 -214.18761063 133.3631115 C-214.35207303 113.22778579 -214.35207303 113.22778579 -208.578125 105.73046875 C-206.26049805 103.42041016 -206.26049805 103.42041016 -203.90234375 101.95703125 C-203.03013184 101.40563477 -202.15791992 100.85423828 -201.25927734 100.28613281 C-200.37449707 99.77276367 -199.4897168 99.25939453 -198.578125 98.73046875 C-197.75393066 98.25061523 -196.92973633 97.77076172 -196.08056641 97.27636719 C-193.53738805 95.84498538 -190.97051416 94.46947997 -188.390625 93.10546875 C-186.44187525 92.05884133 -184.49398481 91.01061266 -182.546875 89.9609375 C-181.556875 89.42774902 -180.566875 88.89456055 -179.546875 88.34521484 C-174.79520408 85.76071225 -170.09266212 83.09141154 -165.390625 80.41796875 C-156.97893723 75.64152977 -148.5390603 70.91911954 -140.078125 66.23046875 C-131.72398248 61.59991391 -123.38693628 56.94188967 -115.078125 52.23046875 C-105.62445622 46.86986886 -96.13014683 41.58509624 -86.625 36.31640625 C-79.42353855 32.3210749 -72.2421778 28.29245726 -65.078125 24.23046875 C-57.04594592 19.67906615 -48.99851483 15.15598126 -40.93212891 10.66552734 C-39.19111961 9.69608554 -37.45101477 8.72501999 -35.7109375 7.75390625 C-32.673884 6.0658441 -29.62839711 4.39449589 -26.578125 2.73046875 C-25.81483887 2.30362793 -25.05155273 1.87678711 -24.26513672 1.43701172 C-16.41342265 -2.78184785 -8.30636424 -2.94712705 0 0 Z " fill="#5C6BC0" transform="translate(266.578125,33.26953125)"/>
<path d="M0 0 C2.39258815 2.30741918 4.49605762 4.5021019 6.26171875 7.3203125 C6.65399658 7.93334229 7.04627441 8.54637207 7.45043945 9.17797852 C8.06278442 10.14175415 8.06278442 10.14175415 8.6875 11.125 C12.39931552 16.8384136 16.35807803 21.96218581 21.046875 26.9296875 C22.65269153 28.63185302 24.1193543 30.34989448 25.5625 32.1875 C46.94490756 56.85950873 83.06613564 72.73655751 115 76 C134.75213564 77.01424681 153.94607152 76.80468563 173 71 C173.77424316 70.77006348 174.54848633 70.54012695 175.34619141 70.30322266 C195.50237122 64.16911064 213.9915562 53.64787667 230 40 C230.78117187 39.34128906 231.56234375 38.68257813 232.3671875 38.00390625 C244.30560512 27.69345467 252.90303113 14.75874515 262 2 C272.10231758 6.85321788 281.89354589 12.13560582 291.6184082 17.70532227 C297.23480792 20.90870246 302.8840458 24.03342248 308.59375 27.06640625 C309.23161438 27.40549515 309.86947876 27.74458405 310.52667236 28.09394836 C313.66281851 29.75867325 316.8030969 31.41508943 319.94824219 33.06274414 C321.08422852 33.6633667 322.22021484 34.26398926 323.390625 34.8828125 C324.40157227 35.41277832 325.41251953 35.94274414 326.45410156 36.48876953 C328.70158768 37.82286419 330.28467636 39.05222596 332 41 C328.01632761 46.50588867 323.67671824 49.28665239 317.75 52.5 C316.37376465 53.26594482 316.37376465 53.26594482 314.96972656 54.04736328 C313.00077531 55.14229066 311.02899983 56.23215204 309.0546875 57.31738281 C304.97710561 59.56344215 300.92041406 61.84595802 296.86230469 64.12695312 C292.64183959 66.49740575 288.41547009 68.85723742 284.18945312 71.21777344 C278.95748051 74.14133437 273.72887166 77.0708977 268.5 80 C262.22743669 83.51328342 255.95445878 87.02581751 249.6796875 90.53515625 C239.60795878 96.16934113 229.54338657 101.81542249 219.5 107.5 C208.41839912 113.77220895 197.31022856 119.99635269 186.19677734 126.21191406 C181.84996543 128.64326052 177.50393676 131.07600419 173.15820312 133.50927734 C171.03600829 134.69746193 168.91361717 135.88529603 166.79101562 137.07275391 C162.18145542 139.65254456 157.57480571 142.23692895 152.98046875 144.84375 C152.23482666 145.26615967 151.48918457 145.68856934 150.72094727 146.1237793 C149.37247245 146.8885695 148.02520193 147.65548906 146.67944336 148.42504883 C139.69788846 152.38264716 132.9600182 153.35673217 125 152 C119.31213934 149.9426887 114.2288785 147.01319616 109 144 C107.25113228 143.02011183 105.5010692 142.04235491 103.75 141.06640625 C99.86350558 138.8912433 95.98867672 136.69688877 92.12109375 134.48828125 C85.9745193 130.97918899 79.80289232 127.51608824 73.625 124.0625 C71.5234366 122.88672037 69.4218741 121.71093911 67.3203125 120.53515625 C65.75458496 119.65947998 65.75458496 119.65947998 64.15722656 118.76611328 C57.89671092 115.26405868 51.63851388 111.75786247 45.37988281 108.25244141 C40.14724952 105.32187215 34.91405778 102.39230956 29.6796875 99.46484375 C18.65972433 93.30021089 7.65203616 87.11490289 -3.33642578 80.89428711 C-9.32937458 77.50368831 -15.33104251 74.12913206 -21.34033203 70.76757812 C-23.43563292 69.59542711 -25.53036614 68.42226071 -27.62451172 67.24804688 C-32.88978715 64.29586425 -38.16134526 61.35611013 -43.4453125 58.4375 C-45.50527975 57.29179506 -47.56517825 56.14596651 -49.625 55 C-50.56666016 54.484375 -51.50832031 53.96875 -52.47851562 53.4375 C-65.69970598 46.05286422 -65.69970598 46.05286422 -68.4375 39.625 C-68.623125 38.75875 -68.80875 37.8925 -69 37 C-68.13028564 36.89905029 -67.26057129 36.79810059 -66.36450195 36.6940918 C-62.74395063 35.94717739 -60.34856195 34.75907088 -57.16796875 32.89453125 C-56.05147949 32.24726074 -54.93499023 31.59999023 -53.78466797 30.93310547 C-52.58558099 30.22628955 -51.38652573 29.51941981 -50.1875 28.8125 C-48.31252696 27.72076937 -46.43565979 26.63234425 -44.55871582 25.54400635 C-43.27741639 24.80072848 -41.99674015 24.05637531 -40.7166748 23.31097412 C-33.31637125 19.00550933 -25.83356156 14.85046013 -18.34838867 10.69458008 C-12.15878286 7.24625737 -6.05194781 3.68472867 0 0 Z " fill="#283593" transform="translate(124,328)"/>
<path d="M0 0 C6.73735654 5.38386974 13.52121076 11.54880109 18 19 C16.69813222 22.90560333 15.31354055 23.24650315 11.76171875 25.23046875 C10.64571289 25.86033691 9.52970703 26.49020508 8.37988281 27.13916016 C7.14911937 27.82199567 5.91832423 28.50477405 4.6875 29.1875 C3.4183928 29.90054746 2.14984594 30.61459306 0.88183594 31.32958984 C-1.75902958 32.81760094 -4.40227208 34.30125249 -7.04736328 35.78173828 C-12.55151197 38.86599289 -18.02995776 41.99501871 -23.50653076 45.12789917 C-25.25981088 46.13061091 -27.01388825 47.13191694 -28.76806641 48.13305664 C-36.26874142 52.41720274 -43.73574122 56.75641025 -51.1875 61.125 C-61.34845467 67.0792975 -71.60633558 72.84802674 -81.890625 78.5859375 C-87.91942182 81.95089214 -93.93478496 85.33874027 -99.9375 88.75 C-100.82590576 89.25160645 -101.71431152 89.75321289 -102.62963867 90.27001953 C-103.44150635 90.73263184 -104.25337402 91.19524414 -105.08984375 91.671875 C-105.80003662 92.0750293 -106.51022949 92.47818359 -107.24194336 92.89355469 C-109.15416028 94.00628596 -109.15416028 94.00628596 -111 96 C-120.56898796 75.64629201 -122.85306711 55.69446142 -115.78710938 34.17871094 C-112.33837162 24.63263906 -106.68759201 16.56047049 -100 9 C-99.48179687 8.38769531 -98.96359375 7.77539062 -98.4296875 7.14453125 C-73.27390831 -20.47626148 -29.09161501 -21.5156736 0 0 Z " fill="#5C6BC0" transform="translate(301,196)"/>
<path d="M0 0 C2.04790754 0.99799248 4.0733211 2.04302237 6.078125 3.125 C7.23006348 3.74415283 8.38200195 4.36330566 9.56884766 5.0012207 C10.79600691 5.66728065 12.02305544 6.33354465 13.25 7 C14.51726537 7.68411581 15.78468192 8.36795165 17.05224609 9.05151367 C26.0175613 13.89359409 34.94450023 18.80325548 43.83203125 23.78662109 C47.92377205 26.07670575 52.02521558 28.34935761 56.125 30.625 C57.64847416 31.47128818 59.17191529 32.31763582 60.6953125 33.1640625 C62.33113281 34.07285156 62.33113281 34.07285156 64 35 C62.00316936 40.55216325 58.76469464 44.52264711 55 49 C54.24589844 49.90105469 54.24589844 49.90105469 53.4765625 50.8203125 C42.92716934 62.33360961 25.69719389 71.00721079 10.16796875 72.22143555 C-13.80423162 73.1042058 -32.55819492 69.38546221 -51 53 C-51.63550781 52.43539062 -52.27101562 51.87078125 -52.92578125 51.2890625 C-57.58401109 46.88904939 -62.17650261 41.77702426 -65 36 C-64.90332031 33.55737305 -64.90332031 33.55737305 -64 31 C-61.74121094 29.24584961 -61.74121094 29.24584961 -58.734375 27.65234375 C-57.62634521 27.05284912 -56.51831543 26.45335449 -55.37670898 25.83569336 C-54.16785917 25.20286064 -52.95895498 24.57013179 -51.75 23.9375 C-50.51987309 23.27740948 -49.29079386 22.615363 -48.06274414 21.95141602 C-45.57310464 20.60622584 -43.07999709 19.2678307 -40.58447266 17.93359375 C-35.48260406 15.19451836 -30.45738923 12.32342634 -25.4375 9.4375 C-24.62571289 8.97400146 -23.81392578 8.51050293 -22.97753906 8.03295898 C-22.19991211 7.58766846 -21.42228516 7.14237793 -20.62109375 6.68359375 C-19.86683105 6.25546387 -19.11256836 5.82733398 -18.33544922 5.38623047 C-16.66123719 4.39248429 -15.01981913 3.34267622 -13.40283203 2.25830078 C-12.53899902 1.68966309 -11.67516602 1.12102539 -10.78515625 0.53515625 C-10.01179932 0.00414307 -9.23844238 -0.52687012 -8.44165039 -1.07397461 C-4.97040944 -2.39048465 -3.34887618 -1.47155229 0 0 Z " fill="#283593" transform="translate(256,258)"/>
</svg>
