<?xml version="1.0" encoding="UTF-8"?>
<svg version="1.1" xmlns="http://www.w3.org/2000/svg" width="700" height="700">
<path d="M0 0 C1.05953552 -0.00226556 2.11907103 -0.00453111 3.21071368 -0.00686532 C6.7431736 -0.01316988 10.27559479 -0.01237824 13.80805969 -0.0115509 C16.34821624 -0.01454462 18.88837233 -0.01794764 21.42852783 -0.02172852 C27.6022696 -0.02963585 33.7759973 -0.03278226 39.94974365 -0.03334089 C44.97229357 -0.03381726 49.99484037 -0.03587801 55.0173893 -0.03904152 C69.28105566 -0.04784178 83.54471451 -0.05246193 97.80838361 -0.05171105 C98.5762357 -0.05167109 99.34408779 -0.05163113 100.13520813 -0.05158997 C100.90400611 -0.05154909 101.67280409 -0.0515082 102.46489898 -0.05146609 C114.91587839 -0.05105989 127.36682751 -0.06062429 139.81779816 -0.07472833 C152.62571339 -0.08912133 165.43361388 -0.0959969 178.24153739 -0.09513456 C185.42278404 -0.09480357 192.60399894 -0.09750714 199.78523827 -0.10831261 C206.54287214 -0.11841611 213.30042814 -0.11805248 220.05806923 -0.11079597 C222.53069787 -0.10975378 225.00333073 -0.11209119 227.47595215 -0.11815643 C255.67882808 -0.18282652 281.52282323 3.1878896 302.68940735 23.5587616 C304.19611222 25.06357214 305.6747062 26.58986408 307.14131165 28.13371277 C307.97404602 29.00769714 308.8067804 29.88168152 309.66474915 30.78215027 C328.79244378 52.52113427 330.45007923 79.60955971 330.40010071 107.18449402 C330.40281454 109.70568442 330.40637767 112.22687402 330.41072083 114.74806213 C330.41885999 120.85629896 330.4177155 126.96447125 330.41189554 133.07270885 C330.40735904 138.04174753 330.4067747 143.01077246 330.40894318 147.97981262 C330.40924964 148.68991684 330.40955611 149.40002106 330.40987186 150.13164359 C330.41051138 151.57468788 330.41115981 153.01773217 330.41181704 154.46077645 C330.41750555 167.95829889 330.41098575 181.45579407 330.40021631 194.95331204 C330.39128215 206.5079254 330.39283461 218.06249857 330.40205383 229.61711121 C330.41278269 243.06986622 330.41695637 256.5225974 330.41082931 269.9753561 C330.41019228 271.41277504 330.40956354 272.85019397 330.40894318 274.28761292 C330.40863463 274.99465357 330.40832607 275.70169422 330.40800817 276.43016034 C330.40628906 281.38706528 330.40917933 286.34395497 330.41390228 291.30085754 C330.4201321 297.98551523 330.41562917 304.67008584 330.40411377 311.35474014 C330.40148171 313.79995728 330.40220724 316.24518082 330.4066391 318.69039536 C330.45839481 350.1605188 325.54808646 374.92087496 303.26631165 398.32121277 C284.81341711 416.09726368 261.30183729 422.30774056 236.27626038 422.26742554 C235.22812109 422.26969109 234.17998181 422.27195665 233.10008073 422.27429086 C229.61218534 422.28058596 226.12432925 422.2798044 222.63642883 422.27897644 C220.12568105 422.28197073 217.61493373 422.28537388 215.10418701 422.28915405 C209.00611483 422.29705608 202.90805688 422.30020751 196.80998006 422.30076643 C191.84895291 422.30124303 186.88792892 422.30330491 181.92690277 422.30646706 C167.83515713 422.31526517 153.74341907 422.31988773 139.65167066 422.31913658 C138.89334496 422.31909663 138.13501926 422.31905667 137.35371399 422.3190155 C136.59445335 422.31897462 135.83519272 422.31893374 135.05292419 422.31889162 C122.75397157 422.31848535 110.4550496 422.32805231 98.15610585 422.34215387 C85.50184062 422.35654737 72.84759031 422.36342243 60.1933167 422.36256009 C53.09927528 422.36222916 46.005266 422.36493068 38.91123199 422.37573814 C32.23648294 422.38584239 25.56181272 422.38547752 18.88705635 422.37822151 C16.44506544 422.37717945 14.00307025 422.37951594 11.56108665 422.38558197 C-15.71856337 422.44892776 -41.92034249 419.39556416 -62.85868835 400.13371277 C-63.68755554 399.39636902 -64.51642273 398.65902527 -65.3704071 397.89933777 C-82.07636583 382.24229835 -91.14130987 360.27640987 -91.95134771 337.53200483 C-91.98931168 334.75179094 -91.99684436 331.97320281 -91.99240112 329.19273376 C-91.99466668 328.13642738 -91.99693224 327.08012099 -91.99926645 325.99180532 C-92.00556221 322.47627094 -92.00477994 318.96077557 -92.00395203 315.44523621 C-92.00694627 312.91478425 -92.01034941 310.38433274 -92.01412964 307.85388184 C-92.02203202 301.70768275 -92.02518311 295.56149777 -92.02574202 289.41529408 C-92.02621859 284.41517464 -92.02828038 279.41505833 -92.03144264 274.41493988 C-92.04024087 260.21251919 -92.0448633 246.01010604 -92.04411217 231.8076826 C-92.04407221 231.04338291 -92.04403226 230.27908322 -92.04399109 229.49162292 C-92.04395021 228.72638106 -92.04390933 227.9611392 -92.04386721 227.17270818 C-92.04346093 214.77675778 -92.05302795 202.38083777 -92.06712946 189.98489615 C-92.08152252 177.23118985 -92.08839804 164.47749835 -92.08753568 151.72378373 C-92.08720473 144.57385106 -92.08990693 137.42395028 -92.10071373 130.27402496 C-92.11081726 123.54674644 -92.11045356 116.81954614 -92.1031971 110.09226036 C-92.10215496 107.63091877 -92.10449202 105.16957294 -92.11055756 102.7082386 C-92.17421419 75.075475 -89.1034644 50.65701421 -69.85868835 29.13371277 C-69.12005554 28.30097839 -68.38142273 27.46824402 -67.6204071 26.61027527 C-49.78340683 7.63474306 -25.51320868 -0.04048628 0 0 Z " fill="#000000" transform="translate(230.8586883544922,138.8662872314453)"/>
<path d="M0 0 C1.14145981 0.00424484 2.28291962 0.00848969 3.45896912 0.01286316 C7.07575885 0.02954724 10.69197473 0.06718109 14.30859375 0.10546875 C16.77277837 0.12052883 19.23697178 0.13421491 21.70117188 0.14648438 C27.71654044 0.1768548 33.73068088 0.23559816 39.74609375 0.29296875 C40.07609375 10.52296875 40.40609375 20.75296875 40.74609375 31.29296875 C42.06609375 27.99296875 43.38609375 24.69296875 44.74609375 21.29296875 C47 18.234375 47 18.234375 49.30859375 15.85546875 C50.07300781 15.05238281 50.83742188 14.24929688 51.625 13.421875 C52.32496094 12.71933594 53.02492188 12.01679688 53.74609375 11.29296875 C54.47892578 10.5040625 54.47892578 10.5040625 55.2265625 9.69921875 C57.16651968 7.90388563 59.23734222 6.60185361 61.49609375 5.23046875 C62.3159375 4.72386719 63.13578125 4.21726562 63.98046875 3.6953125 C73.56927345 -1.1668074 85.94182114 -1.31463412 96.30078125 1.1328125 C107.70315995 5.53087286 116.76239022 13.66602183 122.74609375 24.29296875 C125.48517977 30.58496614 126.26742697 36.40919531 126.18359375 43.23046875 C126.17457031 44.1114624 126.16554688 44.99245605 126.15625 45.90014648 C125.98240993 52.41492376 125.23371566 57.67127791 121.74609375 63.29296875 C120.92431641 64.65615234 120.92431641 64.65615234 120.0859375 66.046875 C113.9738603 75.27146789 105.59082405 82.25176418 94.9609375 85.66796875 C83.03097031 87.98728193 70.79739091 87.387724 60.36328125 80.78515625 C52.85470191 75.31280182 46.92539719 69.11969901 43.12597656 60.61816406 C42.67925598 59.62246399 42.2325354 58.62676392 41.77227783 57.60089111 C41.26431671 56.45846954 41.26431671 56.45846954 40.74609375 55.29296875 C40.73729439 56.80061295 40.73729439 56.80061295 40.72831726 58.3387146 C40.6709348 67.84238298 40.59809286 77.34582594 40.51037884 86.84926414 C40.46578116 91.7342906 40.42650199 96.61923569 40.3996582 101.50439453 C40.37351905 106.22485725 40.33304255 110.94500507 40.28290749 115.66527176 C40.26631023 117.46000862 40.25475172 119.25479986 40.24847984 121.04960251 C40.1890826 136.49412789 38.50715647 149.22685192 27.49609375 161.04296875 C17.628329 170.21825878 6.23191021 173.94147322 -7.1171875 173.578125 C-18.67908979 172.52704297 -29.42018077 166.82082181 -37.25390625 158.29296875 C-44.39053401 148.41148416 -48.28434352 137.54580467 -47.25390625 125.29296875 C-45.00925126 112.03713219 -39.08891292 100.941036 -28.00390625 93.04296875 C-23.07609701 89.92798052 -17.78789425 88.05143223 -12.25390625 86.29296875 C-12.94355469 86.07382812 -13.63320313 85.8546875 -14.34375 85.62890625 C-27.10860597 81.32142399 -36.66434844 74.27398294 -43.25390625 62.29296875 C-48.48113877 49.44827347 -48.04934759 38.06588812 -43.48046875 25.09765625 C-38.85244058 14.61028965 -29.82520666 6.93879948 -19.44740295 2.52456665 C-12.91231945 0.06039186 -6.92949871 -0.09834724 0 0 Z " fill="#A257FD" transform="translate(310.25390625,306.70703125)"/>
<path d="M0 0 C0.9183815 -0.00511093 1.836763 -0.01022186 2.78297424 -0.01548767 C5.7931282 -0.02928995 8.80305074 -0.02843379 11.81323242 -0.02612305 C13.9239663 -0.03001548 16.03469941 -0.03435127 18.14543152 -0.03910828 C22.5608474 -0.04655066 26.9761833 -0.04629386 31.39160156 -0.04101562 C37.02332804 -0.03522762 42.65472493 -0.0521457 48.28639698 -0.0753603 C52.64383325 -0.0901613 57.00119134 -0.09096063 61.3586483 -0.08785057 C63.43367858 -0.08836071 65.5087136 -0.09354019 67.58371925 -0.10366249 C85.23470593 -0.17920099 99.54577774 0.90324129 113.10620117 13.3996582 C121.70298692 22.5289882 124.94729693 32.86243578 125.35620117 45.2746582 C124.70703214 58.52720652 118.87200902 68.28664393 109.35620117 77.2746582 C101.07583494 83.95237291 92.88003325 86.5735179 82.41870117 87.2746582 C73.9629403 87.84398258 66.04220269 89.03050331 58.91870117 93.9621582 C55.54204188 96.2746582 55.54204188 96.2746582 53.35620117 96.2746582 C53.09581055 96.85989258 52.83541992 97.44512695 52.56713867 98.0480957 C51.28297696 100.40929627 49.85212496 101.97971458 47.98120117 103.8996582 C44.61184652 107.64027231 42.84251677 111.25472066 41.18041992 115.9777832 C40.35620117 118.2746582 40.35620117 118.2746582 38.35620117 122.2746582 C38.35620117 110.7246582 38.35620117 99.1746582 38.35620117 87.2746582 C33.3675293 87.32686523 33.3675293 87.32686523 28.27807617 87.38012695 C25.02124895 87.40359012 21.7644315 87.42176816 18.50756836 87.43945312 C16.26143103 87.45444672 14.01532251 87.47484841 11.76928711 87.50097656 C8.52214403 87.53777752 5.27539133 87.55447936 2.02807617 87.56762695 C0.5460672 87.59085274 0.5460672 87.59085274 -0.96588135 87.61454773 C-14.58501925 87.61776201 -26.01648284 83.85641772 -35.95629883 74.3996582 C-44.5740723 65.24327389 -48.60967816 54.86518533 -48.64379883 42.2746582 C-47.86439261 29.49917371 -42.74583291 19.19171113 -33.42114258 10.4699707 C-23.39192956 2.54251963 -12.51398258 -0.03662585 0 0 Z " fill="#F04C19" transform="translate(311.643798828125,219.725341796875)"/>
<path d="M0 0 C8.6625 -0.103125 17.325 -0.20625 26.25 -0.3125 C28.95993164 -0.35802002 31.66986328 -0.40354004 34.46191406 -0.45043945 C36.64647185 -0.46506325 38.83104342 -0.47779942 41.015625 -0.48828125 C42.12019043 -0.51386108 43.22475586 -0.53944092 44.36279297 -0.5657959 C56.24556857 -0.57235372 65.33945575 3.44138564 73.8125 11.68359375 C82.534516 20.9195857 87.14289535 31.10369444 87 44 C86.0293281 57.34673859 80.66332974 66.87264613 71 76 C60.54012535 84.43538278 50.04709938 86.2276687 36.9140625 85.87890625 C35.5077356 85.84790833 35.5077356 85.84790833 34.07299805 85.81628418 C30.5901875 85.73786533 27.10760413 85.64960516 23.625 85.5625 C15.82875 85.376875 8.0325 85.19125 0 85 C0 56.95 0 28.9 0 0 Z " fill="#FE7261" transform="translate(350,221)"/>
<path d="M0 0 C2.34959414 0.02009724 4.69920489 0.03834229 7.04882812 0.0546875 C12.76208566 0.09842289 18.47471392 0.16507871 24.1875 0.25 C24.26397781 7.33000721 24.3162786 14.40990666 24.35229492 21.49023438 C24.36732006 23.89554831 24.38774596 26.30083513 24.41381836 28.70605469 C24.450478 32.17650064 24.46728971 35.64658227 24.48046875 39.1171875 C24.49595261 40.18113739 24.51143646 41.24508728 24.52738953 42.34127808 C24.53018983 54.950485 20.60731977 65.6963019 11.9375 75 C2.06973525 84.17529003 -9.32668354 87.89850447 -22.67578125 87.53515625 C-34.23768354 86.48407422 -44.97877452 80.77785306 -52.8125 72.25 C-59.94912776 62.36851541 -63.84293727 51.50283592 -62.8125 39.25 C-60.57042876 26.00942179 -54.64841119 15.00989664 -43.6875 7 C-29.83698845 -1.24768533 -15.60765915 -0.23283539 0 0 Z " fill="#02CD83" transform="translate(325.8125,392.75)"/>
<path d="M0 0 C10.3086988 6.67122236 18.14665597 15.91489155 21 28 C21.4072192 31.32612371 21.47865198 34.58907928 21.4375 37.9375 C21.42847656 38.81849365 21.41945313 39.6994873 21.41015625 40.60717773 C21.23631618 47.12195501 20.48762191 52.37830916 17 58 C16.17822266 59.36318359 16.17822266 59.36318359 15.33984375 60.75390625 C9.22776655 69.97849914 0.8447303 76.95879543 -9.78515625 80.375 C-21.71512344 82.69431318 -33.94870284 82.09475525 -44.3828125 75.4921875 C-54.34760103 68.2297145 -62.73188115 58.45197248 -65 46 C-65.91111657 32.73653259 -64.70182573 21.5573808 -55.78125 11.03515625 C-55.1934375 10.36355469 -54.605625 9.69195312 -54 9 C-53.08154297 7.75089844 -53.08154297 7.75089844 -52.14453125 6.4765625 C-49.72291701 3.68001709 -47.39300272 2.143628 -44.1875 0.3125 C-43.19105469 -0.26886719 -42.19460938 -0.85023438 -41.16796875 -1.44921875 C-28.61765688 -7.59283627 -11.9603207 -7.26478739 0 0 Z " fill="#12BBFC" transform="translate(415,312)"/>
<path d="M0 0 C11.22 0 22.44 0 34 0 C32.02 0.99 32.02 0.99 30 2 C29.20722656 2.4021875 28.41445313 2.804375 27.59765625 3.21875 C26.76105469 3.6415625 25.92445313 4.064375 25.0625 4.5 C23.81146484 5.13421875 23.81146484 5.13421875 22.53515625 5.78125 C20 7 20 7 17.30859375 7.90625 C14.49512217 9.23919762 14.1955444 10.20346572 13 13 C11.90483204 14.23543578 10.77721832 15.44259255 9.625 16.625 C6.25564535 20.36561411 4.4863156 23.98006246 2.82421875 28.703125 C2 31 2 31 0 35 C0 23.45 0 11.9 0 0 Z " fill="#020303" transform="translate(350,307)"/>
</svg>
