<?xml version="1.0" encoding="UTF-8"?>
<svg version="1.1" xmlns="http://www.w3.org/2000/svg" width="1280" height="1280">
<path d="M0 0 C299.64 0 599.28 0 908 0 C906.85138762 20.6750229 906.85138762 20.6750229 906.01698017 29.8479948 C905.9228034 30.91077867 905.82862663 31.97356255 905.73159602 33.06855199 C905.41987328 36.57816174 905.10390999 40.08737566 904.78791809 43.59660339 C904.55911432 46.16257345 904.33057568 48.72856715 904.10227698 51.29458219 C903.60739666 56.85211798 903.11030932 62.40945281 902.61172676 67.96665764 C901.86919488 76.24305065 901.13016694 84.51975403 900.39182164 92.79652145 C899.14365448 106.7872373 897.89268866 120.77770158 896.64014626 134.76802635 C895.38633634 148.77264988 894.13385319 162.7773911 892.88303185 176.78228188 C892.80449887 177.66157397 892.72596589 178.54086607 892.64505313 179.44680339 C892.24561788 183.9191475 891.84620603 188.3914937 891.44680353 192.86384074 C888.60876677 224.64259485 885.76798285 256.42110286 882.92553711 288.19946289 C880.21993168 318.44805556 877.51527966 348.69673316 874.81225586 378.94555664 C874.73038195 379.86178196 874.64850804 380.77800729 874.5641531 381.72199701 C873.5750194 392.79111829 872.58593675 403.86024413 871.5968805 414.92937233 C870.20201919 430.54010981 868.80709612 446.15084177 867.41216685 461.76157318 C867.08553861 465.41688944 866.75891307 469.07220593 866.4322897 472.72752263 C864.2440954 497.21606091 862.05543975 521.70455793 859.86639133 546.19301988 C852.57515747 627.75879756 845.29151567 709.3252445 835.07421875 824.05078125 C834.98456128 825.05773951 834.98456128 825.05773951 834.89309255 826.08504036 C831.92769926 859.38993532 828.96321623 892.69491127 826 926 C824.74529048 926.47787397 823.48986088 926.95385748 822.2341404 927.42906857 C821.53510271 927.69433942 820.83606502 927.95961027 820.11584437 928.23291963 C816.89920723 929.39908253 813.61939848 930.3198897 810.32177734 931.22290039 C809.59164932 931.42600327 808.8615213 931.62910614 808.10926819 931.83836365 C805.6857663 932.51157707 803.26087137 933.17962095 800.8359375 933.84765625 C799.08907606 934.33175616 797.34230307 934.81617532 795.59561157 935.30088806 C790.85172848 936.61634976 786.10661123 937.92730794 781.36126709 939.23748779 C776.31042054 940.63287874 771.26074979 942.03251235 766.2109375 943.43164062 C755.58333791 946.37538376 744.9543693 949.31415937 734.32507324 952.25177002 C728.21551143 953.94029922 722.1062375 955.62986787 715.99707031 957.31982422 C715.02539948 957.58861169 714.05372866 957.85739916 713.05261326 958.1343317 C711.10248306 958.67379156 709.15235419 959.21325617 707.20222664 959.7527256 C702.34732573 961.0957361 697.49239647 962.43864411 692.63745117 963.78149414 C691.67893218 964.04661521 690.72041319 964.31173628 689.73284817 964.58489132 C683.87627706 966.20470447 678.01955657 967.82397636 672.16273022 969.44286633 C647.09500986 976.37190128 622.0325229 983.31947489 596.97535706 990.28658009 C590.48941611 992.08981579 584.00292413 993.8910584 577.51611328 995.69116211 C574.75750175 996.45675392 571.99889362 997.222358 569.24028778 997.98797035 C567.40200374 998.49815153 565.56371132 999.0083025 563.72541046 999.51842308 C552.02322192 1002.76609391 540.32421282 1006.02491403 528.62844753 1009.29564285 C520.47726951 1011.57475596 512.3241273 1013.84674876 504.16960239 1016.11385727 C499.32165366 1017.46206464 494.47479222 1018.81392356 489.63040161 1020.17486572 C485.13889421 1021.43665055 480.64483057 1022.6888684 476.14862633 1023.93380928 C474.5045654 1024.39088747 472.86148372 1024.85150531 471.21949196 1025.31596184 C468.97097195 1025.95143814 466.7192456 1026.57399945 464.46630859 1027.19360352 C463.20998627 1027.54455582 461.95366394 1027.89550812 460.65927124 1028.25709534 C454.17749379 1029.57302476 448.61804069 1029.17502451 442.22045898 1027.36132812 C441.58650365 1027.18474828 440.95254831 1027.00816843 440.29938221 1026.82623768 C438.19541601 1026.23762528 436.0959274 1025.63442368 433.99609375 1025.03125 C432.47738172 1024.60346671 430.95839156 1024.17666979 429.43914795 1023.7507782 C426.16351033 1022.83052379 422.889742 1021.90398375 419.61727905 1020.97250366 C414.34264977 1019.47140223 409.06397617 1017.98490133 403.78442383 1016.5012207 C401.95798806 1015.98782422 400.13155682 1015.4744116 398.30513 1014.96098328 C397.38996424 1014.70373663 396.47479847 1014.44648998 395.53190041 1014.18144798 C392.70787997 1013.38707846 389.88424926 1012.59133705 387.06071472 1011.79524231 C368.91622076 1006.68126654 350.7448001 1001.66686382 332.56838989 996.66772461 C323.4547412 994.16104934 314.3425187 991.64919843 305.23046875 989.13671875 C304.31768095 988.88505825 303.40489315 988.63339775 302.46444511 988.37411118 C279.10459788 981.93274192 255.75912637 975.43969368 232.41372681 968.94619751 C211.22734904 963.05344659 190.03693116 957.17591053 168.8359375 951.3359375 C167.84381508 951.06259331 166.85169266 950.78924911 165.82950592 950.50762177 C156.26518766 947.87254677 146.7005293 945.23872496 137.13429832 942.61060143 C133.64493979 941.65161827 130.15598317 940.69117849 126.66710281 939.73045731 C125.08194009 939.29432823 123.49660251 938.85883397 121.9110527 938.42411423 C112.38865097 935.8131439 102.89669396 933.10943585 93.41983032 930.33743286 C92.31702382 930.01530099 91.21421732 929.69316912 90.07799244 929.36127567 C87.38519606 928.57463507 84.69253524 927.78753388 82 927 C76.80902661 868.74656733 71.61813364 810.49312749 66.4276123 752.23965454 C66.3491609 751.35919081 66.27070949 750.47872708 66.18988077 749.57158263 C64.47957308 730.37671656 62.76927819 711.18184936 61.05899623 691.986981 C60.21869515 682.5560991 59.37839128 673.12521745 58.53808594 663.69433594 C58.45452328 662.75649829 58.37096062 661.81866064 58.28486576 660.85240367 C55.88186965 633.88319098 53.47874249 606.91398996 51.0754894 579.94480017 C49.70619264 564.57860995 48.33691815 549.21241774 46.96765521 533.84622451 C46.80686808 532.04183322 46.64608079 530.23744194 46.48529336 528.43305067 C42.72506056 486.23488597 38.96534064 444.03667567 35.20727539 401.83831787 C35.12870755 400.95610379 35.05013971 400.07388971 34.96919103 399.16494187 C33.47278028 382.36220159 31.97640869 365.55945783 30.48017311 348.75670195 C29.54916391 338.30146106 28.61811693 327.84622354 27.68701172 317.39099121 C27.61064277 316.53345487 27.53427381 315.67591854 27.45559065 314.79239625 C24.92772548 286.4076528 22.39749376 258.02312083 19.86602765 229.63869832 C18.24786446 211.49479913 16.6299412 193.35087871 15.01357269 175.20681953 C14.94343048 174.41945931 14.87328826 173.63209908 14.80102053 172.82087946 C14.10493093 165.00698887 13.40893511 157.19308993 12.7130627 149.37918 C12.37354147 145.56673585 12.03399894 141.7542936 11.69444275 137.94185257 C11.62786401 137.1943199 11.56128527 136.44678724 11.49268899 135.67660207 C10.43516042 123.80347591 9.37582771 111.93051141 8.3157503 100.05761257 C7.27243027 88.37200684 6.23101766 76.68623265 5.19151783 65.00028643 C4.63459938 58.74012914 4.0768151 52.48005216 3.51671028 46.22017908 C3.00776382 40.53190796 2.5012251 34.84342792 1.99666017 29.15476651 C1.81412448 27.10170992 1.63068599 25.04873335 1.44626766 22.995845 C1.19703779 20.22006927 0.95104966 17.44402487 0.70589447 14.66788673 C0.63332123 13.86840312 0.56074799 13.0689195 0.48597556 12.24520911 C0.42117852 11.50383365 0.35638147 10.7624582 0.28962088 9.99861681 C0.23324779 9.36629135 0.1768747 8.73396588 0.11879334 8.08247904 C-0.03465996 5.39240163 0 2.69445066 0 0 Z " fill="#E44D26" transform="translate(186,251)"/>
<path d="M0 0 C187.77 0 375.54 0 569 0 C568.41770647 9.31669652 567.8321903 18.5796865 566.94921875 27.86328125 C566.84914017 28.93724655 566.74906158 30.01121185 566.64595032 31.11772156 C566.32874844 34.51619922 566.00823649 37.9143543 565.6875 41.3125 C565.48479885 43.47719228 565.2823243 45.64190579 565.08007812 47.80664062 C564.38806373 55.20455302 563.69394649 62.60226859 563 70 C561.68 84.19 560.36 98.38 559 113 C415.78 113 272.56 113 125 113 C128.3 148.64 131.6 184.28 135 221 C135 223.97 135 226.94 135 230 C271.29 230 407.58 230 548 230 C546.84742959 247.28855621 545.69208109 264.47667052 543.99880981 281.7041626 C543.43952427 287.40074984 542.89661297 293.09891119 542.3515625 298.796875 C542.23875443 299.97287262 542.12594635 301.14887024 542.00971985 302.36050415 C540.80632618 314.94384318 539.67908416 327.53370567 538.5625 340.125 C538.3562827 342.44734702 538.15006525 344.76969402 537.94384766 347.09204102 C537.62652993 350.66722289 537.30936398 354.24241804 536.99252319 357.81764221 C535.81742555 371.07414687 534.62953464 384.32950011 533.44137573 397.58483887 C533.06097348 401.82899463 532.68096978 406.07318603 532.30102539 410.31738281 C531.15973175 423.06514989 530.01737568 435.8128189 528.87054443 448.56008911 C528.30845322 454.80789982 527.74712778 461.05577928 527.18604279 467.30368042 C527.00087832 469.36522121 526.81559539 471.42675132 526.63031006 473.48828125 C525.16753335 489.76980023 523.72975958 506.05327951 522.32421875 522.33984375 C522.18507823 523.95029786 522.0459283 525.56075115 521.9067688 527.17120361 C521.30310611 534.16069748 520.70080133 541.15029727 520.10457134 548.1404295 C519.86154738 550.98463035 519.61664456 553.82866739 519.37131691 556.67267036 C519.20414338 558.61846175 519.03949517 560.56446959 518.87492371 562.51048279 C518.77399918 563.67789505 518.67307465 564.84530731 518.5690918 566.0480957 C518.43968452 567.56364799 518.43968452 567.56364799 518.30766296 569.1098175 C517.98937883 572.09977519 517.5231736 575.03960096 517 578 C507.49954941 581.00455946 497.93762763 583.72059529 488.33056641 586.35888672 C484.55162829 587.39843119 480.7759551 588.44968254 477 589.5 C475.50001633 589.91672546 474.00001631 590.33339206 472.5 590.75 C471.7575 590.95625 471.015 591.1625 470.25 591.375 C463.5 593.25 463.5 593.25 461.25146484 593.87451172 C459.74652608 594.29260466 458.24164354 594.7109 456.73681641 595.12939453 C453.06280567 596.15087905 449.38799244 597.16921195 445.7109375 598.1796875 C437.0736261 600.55851687 428.46875023 603.0305447 419.875 605.5625 C411.94669302 607.8963605 404.01766679 610.03099962 395.984375 611.97265625 C390.40279078 613.36805231 384.92078882 615.1061236 379.42089844 616.78930664 C373.03075249 618.73000401 366.61660044 620.36695151 360.125 621.9375 C355.36707938 623.12698016 350.68858513 624.56500879 346 626 C338.74867931 628.2193436 331.4964564 630.15408313 324.125 631.9375 C320.23830272 632.90917432 316.41051015 634.04552356 312.57885742 635.21386719 C310.01136063 635.99653685 307.43769879 636.75608193 304.86328125 637.515625 C301.85725487 638.40986357 298.91649333 639.38345802 295.98046875 640.484375 C284.21179989 644.41130467 275.09857265 641.48459861 263.58349609 637.82080078 C260.30440938 636.77900438 257.00263947 635.85773035 253.6875 634.9375 C252.6046875 634.62296875 251.521875 634.3084375 250.40625 633.984375 C246.50744071 632.85765488 242.5988297 631.76978001 238.6875 630.6875 C231.28797042 628.63811456 223.89315332 626.57226837 216.5 624.5 C209.33548775 622.49217617 202.17004041 620.48799642 195 618.5 C186.74188271 616.21031868 178.49004227 613.89840706 170.23828125 611.5859375 C164.16085055 609.88336861 158.08196112 608.18631085 152 606.5 C143.7425638 604.21050752 135.49115491 601.89966175 127.24047852 599.5859375 C122.57771993 598.27898711 117.91469344 596.97344956 113.24609375 595.6875 C103.89586351 593.11119201 94.5871734 590.41323015 85.28466797 587.66943359 C76.91673612 585.22214506 68.50041095 582.99427082 60.04614258 580.86547852 C59.13501709 580.63401123 58.2238916 580.40254395 57.28515625 580.1640625 C56.47957275 579.96248535 55.67398926 579.7609082 54.84399414 579.55322266 C53 579 53 579 52 578 C51.68328548 575.78665868 51.43130713 573.56405615 51.203125 571.33984375 C51.12951752 570.63008896 51.05591003 569.92033417 50.98007202 569.18907166 C50.73151318 566.77238058 50.49039376 564.35501625 50.25 561.9375 C50.16385437 561.08391907 50.07770874 560.23033813 49.98895264 559.35089111 C47.56326085 535.29726198 45.46652377 511.21273873 43.36120605 487.12939453 C42.97775171 482.74373211 42.59288923 478.35819362 42.20800781 473.97265625 C41.45341288 465.37249087 40.70129532 456.77211054 39.95055389 448.17160797 C39.75184308 445.8961057 39.55285419 443.62062788 39.3538208 441.34515381 C39.03839235 437.73752341 38.72419558 434.12978757 38.41088486 430.52197266 C38.24143234 428.57334377 38.07094913 426.6248046 37.90042114 424.67626953 C37.74426834 422.87367676 37.74426834 422.87367676 37.58496094 421.03466797 C37.45102936 419.49599564 37.45102936 419.49599564 37.31439209 417.92623901 C36.83615946 411.95390173 36.42687341 405.97622775 36 400 C73.62 400 111.24 400 150 400 C153.45822507 428.81854225 153.45822507 428.81854225 154.38671875 439.59375 C154.54682182 441.40643372 154.54682182 441.40643372 154.7101593 443.2557373 C154.92958125 445.75186309 155.14706518 448.24816005 155.36254883 450.74462891 C155.69208256 454.55295936 156.03026886 458.36045899 156.36914062 462.16796875 C156.58384214 464.62235138 156.79805347 467.07677695 157.01171875 469.53125 C157.11167648 470.65317749 157.21163422 471.77510498 157.31462097 472.93103027 C157.83081715 478.98130828 158.10080511 484.92778723 158 491 C158.63824707 491.1019165 159.27649414 491.20383301 159.93408203 491.30883789 C174.24192107 493.6482284 188.24081405 497.72482745 202.14208984 501.76855469 C208.06526847 503.480304 214.01059705 505.03801975 220 506.5 C227.76756606 508.39602006 235.44408544 510.52792947 243.12036133 512.76293945 C250.11585357 514.78467129 257.15264173 516.58429678 264.22753906 518.30541992 C269.14023156 519.50688288 273.96533212 520.82032503 278.734375 522.51953125 C285.8270373 524.02366481 291.75328505 522.48286393 298.5 520.375 C306.37222964 518.01544351 314.26562695 515.88407187 322.25 513.9375 C329.72810969 512.10465318 337.12451047 510.13679302 344.48925781 507.89428711 C350.60979394 506.05680908 356.79456828 504.52248815 363 503 C370.6613167 501.11922843 378.25226735 499.12037252 385.80249023 496.83520508 C394.13845745 494.32390439 402.57109562 492.17430574 411 490 C411.08918701 488.89047974 411.08918701 488.89047974 411.18017578 487.75854492 C412.98087551 465.49519753 414.94183536 443.24656357 416.9375 421 C417.02906246 419.97872828 417.02906246 419.97872828 417.12247467 418.9368248 C419.39214096 393.62246875 421.69895165 368.31153184 424 343 C294.31 343 164.62 343 31 343 C29.12757459 325.52402953 27.31636477 308.07546326 25.80078125 290.5703125 C25.60306736 288.31232207 25.40505534 286.05435772 25.20677185 283.79641724 C24.78892642 279.03435389 24.37244863 274.27217411 23.95715332 269.5098877 C22.85523098 256.87832933 21.74290131 244.24768615 20.62890625 231.6171875 C20.46141436 229.7173259 20.46141436 229.7173259 20.29053879 227.77908325 C18.18626203 203.92882067 15.99113435 180.0877433 13.75 156.25 C11.12186453 128.28720312 8.60012342 100.31782342 6.19949913 72.33457565 C4.61153309 53.83057523 2.94670079 35.33624527 1.11621094 16.85449219 C1.00069382 15.67702423 1.00069382 15.67702423 0.88284302 14.47576904 C0.68139566 12.4263393 0.47683079 10.37721662 0.27197266 8.328125 C0 5 0 5 0 0 Z " fill="#FEFEFE" transform="translate(355,441)"/>
<path d="M0 0 C122.1 0 244.2 0 370 0 C370 17.87591241 370 17.87591241 369.0625 24.5 C368.24058043 30.6758123 367.72569179 36.78366699 367.39257812 43.00683594 C367.08896022 48.29956501 366.47609957 53.52018815 365.80297852 58.77661133 C364.7660058 67.28247356 364.25312281 75.83146808 363.69750977 84.37988281 C363.62072998 85.53713867 363.5439502 86.69439453 363.46484375 87.88671875 C363.399021 88.92014404 363.33319824 89.95356934 363.26538086 91.01831055 C362.99548938 94.05067914 362.51435036 97.00065575 362 100 C361.82815713 102.43580452 361.68456485 104.87369419 361.5625 107.3125 C361.21996482 113.5080427 360.59199383 119.61675717 359.80322266 125.77392578 C358.76646097 134.28073749 358.25318283 142.83054458 357.69750977 151.37988281 C357.62072998 152.53713867 357.5439502 153.69439453 357.46484375 154.88671875 C357.399021 155.92014404 357.33319824 156.95356934 357.26538086 158.01831055 C356.99548938 161.05067914 356.51435036 164.00065575 356 167 C355.82815713 169.43580452 355.68456485 171.87369419 355.5625 174.3125 C355.21996482 180.5080427 354.59199383 186.61675717 353.80322266 192.77392578 C352.76646097 201.28073749 352.25318283 209.83054458 351.69750977 218.37988281 C351.62072998 219.53713867 351.5439502 220.69439453 351.46484375 221.88671875 C351.399021 222.92014404 351.33319824 223.95356934 351.26538086 225.01831055 C350.99548938 228.05067914 350.51435036 231.00065575 350 234 C349.82815713 236.43580452 349.68456485 238.87369419 349.5625 241.3125 C349.21996482 247.5080427 348.59199383 253.61675717 347.80322266 259.77392578 C346.76646097 268.28073749 346.25318283 276.83054458 345.69750977 285.37988281 C345.62072998 286.53713867 345.5439502 287.69439453 345.46484375 288.88671875 C345.399021 289.92014404 345.33319824 290.95356934 345.26538086 292.01831055 C344.99548938 295.05067914 344.51435036 298.00065575 344 301 C343.82815713 303.43580452 343.68456485 305.87369419 343.5625 308.3125 C343.21996482 314.5080427 342.59199383 320.61675717 341.80322266 326.77392578 C340.76646097 335.28073749 340.25318283 343.83054458 339.69750977 352.37988281 C339.62072998 353.53713867 339.5439502 354.69439453 339.46484375 355.88671875 C339.399021 356.92014404 339.33319824 357.95356934 339.26538086 359.01831055 C338.99548938 362.05067914 338.51435036 365.00065575 338 368 C337.82815713 370.43580452 337.68456485 372.87369419 337.5625 375.3125 C337.21996482 381.5080427 336.59199383 387.61675717 335.80322266 393.77392578 C334.76646097 402.28073749 334.25318283 410.83054458 333.69750977 419.37988281 C333.62072998 420.53713867 333.5439502 421.69439453 333.46484375 422.88671875 C333.399021 423.92014404 333.33319824 424.95356934 333.26538086 426.01831055 C332.99548938 429.05067914 332.51435036 432.00065575 332 435 C331.82815713 437.43580452 331.68456485 439.87369419 331.5625 442.3125 C331.21996482 448.5080427 330.59199383 454.61675717 329.80322266 460.77392578 C328.76646097 469.28073749 328.25318283 477.83054458 327.69750977 486.37988281 C327.62072998 487.53713867 327.5439502 488.69439453 327.46484375 489.88671875 C327.399021 490.92014404 327.33319824 491.95356934 327.26538086 493.01831055 C326.99548938 496.05067914 326.51435036 499.00065575 326 502 C325.74023713 505.68203559 325.55996501 509.36411662 325.37890625 513.05078125 C325.11120926 517.21505754 324.60365973 521.34107962 324.08984375 525.48046875 C322.68429294 536.95386181 321.87589446 548.47651357 321 560 C320.67060162 564.33364747 320.3366028 568.66690678 320 573 C319.92910156 573.95261719 319.85820313 574.90523437 319.78515625 575.88671875 C319.34826474 581.5049903 318.76364334 587.09229546 318.07910156 592.68530273 C316.69254401 604.1093663 315.73753786 615.57234007 314.734375 627.03515625 C314.51765948 629.48969316 314.30067264 631.94420614 314.08343506 634.3986969 C313.62386889 639.59344791 313.16543998 644.78829749 312.70776367 649.98321533 C312.00378057 657.9695837 311.29293943 665.95533767 310.58007812 673.94091797 C310.49140897 674.93425231 310.49140897 674.93425231 310.40094852 675.94765401 C310.10116657 679.30561129 309.80125967 682.6635574 309.50126648 686.02149582 C309.14084224 690.0558693 308.78065774 694.09026415 308.42053223 698.12466431 C308.06008789 702.16263474 307.69963131 706.20060408 307.33904266 710.23856163 C306.72565364 717.10764233 306.11267561 723.97675935 305.50048828 730.84594727 C304.89260668 737.6668025 304.28370904 744.48756642 303.67418671 751.30827522 C303.44580122 753.86581477 303.21775157 756.42338432 302.9900589 758.98098564 C302.67559087 762.51271433 302.35991109 766.04433277 302.04394531 769.57592773 C301.95253769 770.60573257 301.86113007 771.63553741 301.76695251 772.69654846 C301.24860992 778.47384533 300.66174046 784.23731643 300 790 C298.92258545 790.30067383 297.8451709 790.60134766 296.73510742 790.91113281 C296.01134918 791.11311279 295.28759094 791.31509277 294.54190063 791.52319336 C292.88376049 791.98592821 291.22561833 792.4486558 289.56747437 792.91137695 C284.82545385 794.23469626 280.08347172 795.55815288 275.34155273 796.88183594 C266.34757024 799.39232264 257.35343351 801.9022407 248.35784912 804.40698242 C243.75924298 805.68742694 239.16084092 806.96860337 234.5625 808.25 C233.65967285 808.50152832 232.7568457 808.75305664 231.82666016 809.01220703 C220.93406566 812.04804064 210.05315344 815.11895355 199.1875 818.25 C189.96620309 820.90611237 180.71620957 823.42726829 171.4375 825.875 C159.80693585 828.94408202 148.23387137 832.18204986 136.67449951 835.50817871 C124.56030923 838.99386712 112.42565151 842.39819374 100.27575684 845.75720215 C90.37679303 848.49471569 80.4936357 851.27958905 70.625 854.125 C59.78343023 857.24862999 48.89800071 860.18029983 37.98754883 863.05322266 C28.69844672 865.51165318 19.46947058 868.14154363 10.27050781 870.91821289 C9.35237305 871.19270264 8.43423828 871.46719238 7.48828125 871.75 C6.68946533 871.99234375 5.89064941 872.2346875 5.06762695 872.484375 C3 873 3 873 0 873 C0 834.06 0 795.12 0 755 C15.3743328 750.60733349 30.62643534 746.27226403 46.08984375 742.296875 C50.92482222 741.03866827 55.67847839 739.58133668 60.4375 738.0625 C66.43563313 736.2735831 72.50879553 734.76873194 78.5703125 733.2109375 C83.58630121 731.91437645 88.56276071 730.57571467 93.5 729 C99.44346459 727.1031496 105.45969728 725.55246588 111.5 724 C118.57805672 722.1796547 125.58392154 720.26378375 132.55078125 718.05078125 C138.02752071 716.38232948 143.55773714 714.91471243 149.08447266 713.421875 C156.21544574 711.49374237 163.32837323 709.50703595 170.4375 707.5 C179.64850285 704.90279451 188.88879942 702.44753527 198.1574707 700.06518555 C204.18718409 698.50482097 210.11711267 696.77229315 216.05078125 694.87890625 C221.3024703 693.31383335 226.64952501 692.17096256 232 691 C232.0410083 690.12520996 232.0820166 689.25041992 232.12426758 688.34912109 C232.87196977 674.13135747 234.19733988 659.96635339 235.49039841 645.78997421 C235.82774588 642.08453188 236.16192398 638.37880374 236.49633789 634.6730957 C236.98426883 629.26868211 237.4730145 623.86434351 237.96285915 618.46010303 C238.80926591 609.12106275 239.64914748 599.78145261 240.484375 590.44140625 C240.54425913 589.77182766 240.60414326 589.10224907 240.66584206 588.41238022 C240.96829396 585.03029991 241.27063094 581.64820935 241.57290649 578.26611328 C242.19242942 571.33489773 242.81288797 564.40376596 243.43359375 557.47265625 C243.49644247 556.77079319 243.55929119 556.06893013 243.62404442 555.34579849 C244.58025487 544.66876773 245.54044071 533.9920983 246.50242233 523.31558609 C249.44149052 490.69331902 252.35887016 458.06954897 255.1875 425.4375 C255.31227806 423.99871754 255.43706437 422.5599358 255.56185913 421.12115479 C256.04047563 415.60281802 256.51889517 410.0844642 256.99720764 404.56610107 C257.33139396 400.7107273 257.6656635 396.85536075 258 393 C258.15789001 391.17918915 258.15789001 391.17918915 258.31896973 389.32159424 C258.89431592 382.69155948 259.47242733 376.06177856 260.05532837 369.43240356 C260.22429179 367.50579553 260.39227053 365.57910085 260.55917358 363.65231323 C260.78296039 361.07005781 261.01014871 358.48812457 261.23828125 355.90625 C261.3331633 354.79758324 261.3331633 354.79758324 261.42996216 353.66651917 C261.75604881 350.02113788 262.27909064 346.6045468 263 343 C126.71 343 -9.58 343 -150 343 C-160 237 -160 237 -160 226 C-16.78 226 126.44 226 274 226 C274 221.71 274 217.42 274 213 C274.27463791 209.31072463 274.58898345 205.66220364 274.98828125 201.98828125 C275.14265152 200.48830345 275.14265152 200.48830345 275.30014038 198.95802307 C275.51917296 196.83506588 275.74106591 194.71240206 275.96566772 192.59002686 C276.55526529 187.01839466 277.12441054 181.44466738 277.6953125 175.87109375 C277.80898666 174.76638733 277.92266083 173.66168091 278.03977966 172.52349854 C279.14946861 161.6783326 280.11367294 150.82285469 281.01098633 139.95825195 C281.77305686 130.91735126 282.87192222 122.02462227 284 113 C96.23 113 -91.54 113 -285 113 C-285 112.67 -285 112.34 -285 112 C-190.95 112 -96.9 112 0 112 C0 75.04 0 38.08 0 0 Z " fill="#F06529" transform="translate(640,328)"/>
<path d="M0 0 C187.77 0 375.54 0 569 0 C568.41770647 9.31669652 567.8321903 18.5796865 566.94921875 27.86328125 C566.84914017 28.93724655 566.74906158 30.01121185 566.64595032 31.11772156 C566.32874844 34.51619922 566.00823649 37.9143543 565.6875 41.3125 C565.48479885 43.47719228 565.2823243 45.64190579 565.08007812 47.80664062 C564.38806373 55.20455302 563.69394649 62.60226859 563 70 C561.68 84.19 560.36 98.38 559 113 C415.78 113 272.56 113 125 113 C128.3 148.64 131.6 184.28 135 221 C135 223.97 135 226.94 135 230 C184.5 230 234 230 285 230 C285 267.29 285 304.58 285 343 C201.18 343 117.36 343 31 343 C29.12757459 325.52402953 27.31636477 308.07546326 25.80078125 290.5703125 C25.60306736 288.31232207 25.40505534 286.05435772 25.20677185 283.79641724 C24.78892642 279.03435389 24.37244863 274.27217411 23.95715332 269.5098877 C22.85523098 256.87832933 21.74290131 244.24768615 20.62890625 231.6171875 C20.46141436 229.7173259 20.46141436 229.7173259 20.29053879 227.77908325 C18.18626203 203.92882067 15.99113435 180.0877433 13.75 156.25 C11.12186453 128.28720312 8.60012342 100.31782342 6.19949913 72.33457565 C4.61153309 53.83057523 2.94670079 35.33624527 1.11621094 16.85449219 C1.00069382 15.67702423 1.00069382 15.67702423 0.88284302 14.47576904 C0.68139566 12.4263393 0.47683079 10.37721662 0.27197266 8.328125 C0 5 0 5 0 0 Z " fill="#EBEAEA" transform="translate(355,441)"/>
<path d="M0 0 C37.62 0 75.24 0 114 0 C117.45822507 28.81854225 117.45822507 28.81854225 118.38671875 39.59375 C118.54682182 41.40643372 118.54682182 41.40643372 118.7101593 43.2557373 C118.92958125 45.75186309 119.14706518 48.24816005 119.36254883 50.74462891 C119.69208256 54.55295936 120.03026886 58.36045899 120.36914062 62.16796875 C120.58384214 64.62235138 120.79805347 67.07677695 121.01171875 69.53125 C121.11167648 70.65317749 121.21163422 71.77510498 121.31462097 72.93103027 C121.83081715 78.98130828 122.10080511 84.92778723 122 91 C122.95737061 91.15287476 122.95737061 91.15287476 123.93408203 91.30883789 C138.24192107 93.6482284 152.24081405 97.72482745 166.14208984 101.76855469 C172.06526847 103.480304 178.01059705 105.03801975 184 106.5 C190.8824105 108.17995847 197.69765029 110.0207462 204.5 112 C213.04989734 114.48611786 221.64278877 116.70867455 230.2890625 118.83203125 C236.88602741 120.45483581 243.44344471 122.22178273 250 124 C249.01 124.495 249.01 124.495 248 125 C248 163.61 248 202.22 248 242 C236.63859036 240.37694148 225.66080383 237.24949369 214.65234375 234.0546875 C210.67129068 232.90507859 206.68115966 231.79230885 202.6875 230.6875 C195.28795779 228.63816044 187.89315316 226.57226833 180.5 224.5 C173.33548775 222.49217617 166.17004041 220.48799642 159 218.5 C150.74188271 216.21031868 142.49004227 213.89840706 134.23828125 211.5859375 C128.16085055 209.88336861 122.08196112 208.18631085 116 206.5 C107.7425638 204.21050752 99.49115491 201.89966175 91.24047852 199.5859375 C86.57771993 198.27898711 81.91469344 196.97344956 77.24609375 195.6875 C67.89586351 193.11119201 58.5871734 190.41323015 49.28466797 187.66943359 C40.91673612 185.22214506 32.50041095 182.99427082 24.04614258 180.86547852 C23.13501709 180.63401123 22.2238916 180.40254395 21.28515625 180.1640625 C20.47957275 179.96248535 19.67398926 179.7609082 18.84399414 179.55322266 C17 179 17 179 16 178 C15.68328548 175.78665868 15.43130713 173.56405615 15.203125 171.33984375 C15.12951752 170.63008896 15.05591003 169.92033417 14.98007202 169.18907166 C14.73151318 166.77238058 14.49039376 164.35501625 14.25 161.9375 C14.16385437 161.08391907 14.07770874 160.23033813 13.98895264 159.35089111 C11.56326085 135.29726198 9.46652377 111.21273873 7.36120605 87.12939453 C6.97775171 82.74373211 6.59288923 78.35819362 6.20800781 73.97265625 C5.45341288 65.37249087 4.70129532 56.77211054 3.95055389 48.17160797 C3.75184308 45.8961057 3.55285419 43.62062788 3.3538208 41.34515381 C3.03839235 37.73752341 2.72419558 34.12978757 2.41088486 30.52197266 C2.24143234 28.57334377 2.07094913 26.6248046 1.90042114 24.67626953 C1.79631927 23.47454102 1.69221741 22.2728125 1.58496094 21.03466797 C1.49567322 20.00888641 1.4063855 18.98310486 1.31439209 17.92623901 C0.83615946 11.95390173 0.42687341 5.97622775 0 0 Z " fill="#EAEAEA" transform="translate(391,841)"/>
<path d="M0 0 C94.05 0 188.1 0 285 0 C284.41770647 9.31669652 283.8321903 18.5796865 282.94921875 27.86328125 C282.84914017 28.93724655 282.74906158 30.01121185 282.64595032 31.11772156 C282.32874844 34.51619922 282.00823649 37.9143543 281.6875 41.3125 C281.48479885 43.47719228 281.2823243 45.64190579 281.08007812 47.80664062 C280.38806373 55.20455302 279.69394649 62.60226859 279 70 C277.68 84.19 276.36 98.38 275 113 C184.25 113 93.5 113 0 113 C0 75.71 0 38.42 0 0 Z " fill="#FEFEFE" transform="translate(639,441)"/>
<path d="M0 0 C20.46 0 40.92 0 62 0 C68.26900899 10.03041438 74.50654917 20.06665772 80.625 30.1875 C81.68316665 31.93621077 82.74168037 33.68470974 83.80072021 35.43289185 C84.83706944 37.14403883 85.87215705 38.85594971 86.90722656 40.56787109 C88.35464206 42.95220747 89.82245043 45.32258198 91.30371094 47.68603516 C91.67579681 48.28201004 92.04788269 48.87798492 92.4312439 49.49201965 C93.46552445 51.14568656 94.50483189 52.79620632 95.54443359 54.4465332 C97 57 97 57 97 59 C97.66 59 98.32 59 99 59 C99.26844727 58.28118652 99.53689453 57.56237305 99.81347656 56.82177734 C101.00590521 53.98595629 102.39368704 51.48283761 103.984375 48.8515625 C104.58338623 47.85680908 105.18239746 46.86205566 105.79956055 45.8371582 C106.44320557 44.777146 107.08685059 43.71713379 107.75 42.625 C108.41233643 41.52824951 109.07467285 40.43149902 109.75708008 39.30151367 C111.4893068 36.43568985 113.22491816 33.57198333 114.96270752 30.70953369 C116.63251629 27.957567 118.29818791 25.20309572 119.96484375 22.44921875 C121.2053027 20.40338719 122.44617098 18.35780375 123.6875 16.3125 C124.55036621 14.8896167 124.55036621 14.8896167 125.43066406 13.43798828 C125.97303711 12.54708496 126.51541016 11.65618164 127.07421875 10.73828125 C127.54432373 9.96524658 128.01442871 9.19221191 128.4987793 8.39575195 C130.27537042 5.56054481 132.14405939 2.78391092 134 0 C154.46 0 174.92 0 196 0 C196 57.09 196 114.18 196 173 C176.53 173 157.06 173 137 173 C136.67 146.27 136.34 119.54 136 92 C128.27764091 103.55217316 128.27764091 103.55217316 120.6875 115.1875 C119.77499004 116.60302607 118.86221718 118.01838269 117.94921875 119.43359375 C117.47790527 120.16433105 117.0065918 120.89506836 116.52099609 121.64794922 C114.85906342 124.21794269 113.19008655 126.7832597 111.51953125 129.34765625 C110.93405518 130.24653564 110.3485791 131.14541504 109.74536133 132.0715332 C108.60653638 133.819197 107.46707989 135.56644948 106.3269043 137.31323242 C105.80652588 138.11220947 105.28614746 138.91118652 104.75 139.734375 C104.26402344 140.47751953 103.77804687 141.22066406 103.27734375 141.98632812 C102.22529976 143.6448256 101.25665244 145.35592101 100.3125 147.078125 C99.879375 147.71234375 99.44625 148.3465625 99 149 C98.01 149 97.02 149 96 149 C94.49769794 146.92599736 93.21888526 144.89581607 91.9375 142.6875 C86.81799686 134.17646227 81.33920185 125.92685174 75.80221558 117.68515015 C70.09430372 109.18683531 64.53778382 100.61433039 59 92 C58.67 118.73 58.34 145.46 58 173 C38.86 173 19.72 173 0 173 C0 115.91 0 58.82 0 0 Z " fill="#000000" transform="translate(648,0)"/>
<path d="M0 0 C19.14 0 38.28 0 58 0 C58 18.81 58 37.62 58 57 C75.16 57 92.32 57 110 57 C110 38.19 110 19.38 110 0 C129.14 0 148.28 0 168 0 C168 57.09 168 114.18 168 173 C148.86 173 129.72 173 110 173 C110 153.86 110 134.72 110 115 C92.84 115 75.68 115 58 115 C58 134.14 58 153.28 58 173 C38.86 173 19.72 173 0 173 C0 115.91 0 58.82 0 0 Z " fill="#000000" transform="translate(271,0)"/>
<path d="M0 0 C45.87 0 91.74 0 139 0 C139 12.37374126 139 12.37374126 138.52856445 17.23510742 C138.42440216 18.33686813 138.32023987 19.43862885 138.21292114 20.57377625 C138.09753998 21.73923477 137.98215881 22.9046933 137.86328125 24.10546875 C137.68368362 25.98653069 137.68368362 25.98653069 137.50045776 27.90559387 C137.24277087 30.59981772 136.98332435 33.29379971 136.72079468 35.98754883 C136.30665515 40.23921061 135.90008232 44.49157306 135.49536133 48.74414062 C135.42719176 49.46038164 135.3590222 50.17662266 135.28878689 50.91456795 C135.1502187 52.37084886 135.01168524 53.82713308 134.87318611 55.28342056 C134.66324013 57.48910856 134.45269475 59.69473872 134.24205017 61.90036011 C132.9543575 75.39794026 131.7174058 88.89973897 130.5093689 102.4046936 C130.29729544 104.77357446 130.08428531 107.14237169 129.87026978 109.51107788 C128.74220672 121.99989311 127.67767242 134.47764007 127 147 C113.47821697 151.67116141 99.75260857 155.36149268 85.86694336 158.76879883 C80.03099858 160.21081604 74.25047044 161.74887442 68.5 163.5 C61.71981392 165.56469321 54.8829857 167.31128554 48 169 C39.56817252 171.06981651 31.23508791 173.33285437 22.921875 175.83203125 C18.85954275 177.05134211 14.78042197 178.20047213 10.6875 179.3125 C9.49511719 179.63863281 8.30273438 179.96476563 7.07421875 180.30078125 C4 181 4 181 0 181 C0 121.27 0 61.54 0 0 Z " fill="#F16529" transform="translate(640,784)"/>
<path d="M0 0 C52.8 0 105.6 0 160 0 C160 37.95 160 75.9 160 115 C110.5 115 61 115 10 115 C8.02 94.21 6.04 73.42 4 52 C2.1445791 32.99461563 2.1445791 32.99461563 0.27197266 13.9909668 C-0.04516626 9.33722365 0 4.66453667 0 0 Z " fill="#E44D26" transform="translate(480,555)"/>
<path d="M0 0 C52.8 0 105.6 0 160 0 C160 19.14 160 38.28 160 58 C143.17 58 126.34 58 109 58 C109 95.95 109 133.9 109 173 C89.86 173 70.72 173 51 173 C51 135.05 51 97.1 51 58 C34.17 58 17.34 58 0 58 C0 38.86 0 19.72 0 0 Z " fill="#000000" transform="translate(464,0)"/>
<path d="M0 0 C19.47 0 38.94 0 59 0 C59 37.95 59 75.9 59 115 C85.73 115 112.46 115 140 115 C140 134.14 140 153.28 140 173 C93.8 173 47.6 173 0 173 C0 115.91 0 58.82 0 0 Z " fill="#000000" transform="translate(871,0)"/>
</svg>
