<?xml version="1.0" encoding="UTF-8"?>
<svg version="1.1" xmlns="http://www.w3.org/2000/svg" width="256" height="256">
<path d="M0 0 C84.48 0 168.96 0 256 0 C256 84.48 256 168.96 256 256 C171.52 256 87.04 256 0 256 C0 171.52 0 87.04 0 0 Z " fill="#09D2F3" transform="translate(0,0)"/>
<path d="M0 0 C84.48 0 168.96 0 256 0 C256 84.48 256 168.96 256 256 C171.52 256 87.04 256 0 256 C0 171.52 0 87.04 0 0 Z M62.375 28.5 C55.29027714 37.25916168 54.35914405 46.74515579 54.5625 57.6875 C54.5728125 58.91178711 54.583125 60.13607422 54.59375 61.39746094 C54.75817792 70.54013694 55.69055263 79.1471184 58 88 C57.41734375 88.15855469 56.8346875 88.31710938 56.234375 88.48046875 C38.68698651 93.47430101 19.85593929 101.46151197 9.75 117.5625 C7.10266393 123.12488028 7.00217403 128.46652215 8.6640625 134.3515625 C14.74395969 149.73634583 29.7069893 157.62789495 44 164 C50.78817023 166.95438893 50.78817023 166.95438893 58 168 C57.71125 169.21171875 57.4225 170.4234375 57.125 171.671875 C53.30787191 188.52802737 50.19980292 207.72897976 59.42578125 223.42578125 C62.54358558 227.83260029 66.11647745 231.55823872 71 234 C90.65616285 235.79104598 104.85992868 228.61603963 119.9375 216.1875 C120.81277344 215.43855469 121.68804687 214.68960938 122.58984375 213.91796875 C124.68593566 212.24992802 126.55969177 211.07011196 129 210 C129.825 210.76183594 130.65 211.52367187 131.5 212.30859375 C140.00418886 219.97994312 148.71113104 225.96634145 159 231 C159.80824219 231.4021875 160.61648437 231.804375 161.44921875 232.21875 C168.71996594 235.21014313 178.78731729 235.36318512 186.375 233.37890625 C193.02760101 230.03775619 197.06341136 222.81485034 199.45703125 216.0546875 C201.17481231 209.55430738 201.19216475 203.18096219 201.1875 196.5 C201.18741943 195.43442871 201.18733887 194.36885742 201.18725586 193.27099609 C201.39536701 180.28801122 201.39536701 180.28801122 198 168 C199.05380859 167.81630859 199.05380859 167.81630859 200.12890625 167.62890625 C217.04952263 163.92248552 235.00738527 153.6649164 244.6875 139.234375 C247.9892803 133.6134871 247.67335586 127.32206334 247 121 C245.76898723 117.90277186 244.12317589 115.54781106 242 113 C241.40316406 112.19304687 240.80632812 111.38609375 240.19140625 110.5546875 C230.61830376 99.3946001 213.59908954 92.60937561 200 88 C199.34 88 198.68 88 198 88 C198.2165625 87.1234375 198.433125 86.246875 198.65625 85.34375 C202.41277848 68.23067581 204.68604449 46.53174072 195.1875 31 C191.83076235 26.3907483 188.45941158 23.81980386 183 22 C162.79529299 20.36114775 149.20957154 29.41187339 134 42 C132.74316406 43.13888672 132.74316406 43.13888672 131.4609375 44.30078125 C129 46 129 46 126.9296875 45.96875 C124.56664894 44.78244724 123.01483224 43.35306507 121.125 41.5 C107.97131763 29.4116572 93.0312624 21.36269572 74.94921875 21.76171875 C69.23235586 22.22361098 66.25435562 24.52284549 62.375 28.5 Z " fill="#212222" transform="translate(0,0)"/>
<path d="M0 0 C2.06022764 -0.07158843 4.11964047 -0.17371034 6.17675781 -0.30761719 C22.76341087 -1.36559982 22.76341087 -1.36559982 27.55941772 2.45578003 C30.75949346 6.18516499 32.83323459 10.35052533 34.74223328 14.8500824 C36.25875676 18.27108531 38.20212754 21.43024877 40.11254883 24.6418457 C41.03874023 26.28733398 41.03874023 26.28733398 41.98364258 27.96606445 C43.58799555 30.93186249 43.58799555 30.93186249 45.46020508 33.41137695 C47.23316608 37.1226233 46.74252155 38.97851333 45.67504883 42.9543457 C44.02204691 46.63418114 42.09247591 50.12922782 40.11254883 53.6418457 C39.61174805 54.55901367 39.11094727 55.47618164 38.5949707 56.42114258 C37.55008623 58.30667811 36.46991431 60.17302836 35.35791016 62.01977539 C33.59479895 64.95847773 33.59479895 64.95847773 32.26367188 68.28735352 C30.4125821 72.06298232 28.96056414 74.29974556 25.67504883 76.9543457 C19.53497771 78.87308002 13.02054408 78.59541016 6.65722656 78.40893555 C3.61255424 78.32934584 0.58525181 78.36753396 -2.4597168 78.41918945 C-16.34707872 78.41087487 -16.34707872 78.41087487 -21.07397461 74.92993164 C-22.91626079 72.34274275 -24.1244476 69.8883225 -25.32495117 66.9543457 C-26.20042213 65.49242805 -27.09782653 64.04334213 -28.02026367 62.6105957 C-28.83600837 61.22861481 -29.64591872 59.84317342 -30.44995117 58.4543457 C-30.87373047 57.7223999 -31.29750977 56.9904541 -31.73413086 56.23632812 C-32.56309313 54.79583892 -33.38877211 53.35345382 -34.21069336 51.90893555 C-35.17633874 50.21503614 -36.15926011 48.5310075 -37.14526367 46.84887695 C-37.61706055 45.99680664 -38.08885742 45.14473633 -38.57495117 44.2668457 C-39.17049805 43.20916992 -39.17049805 43.20916992 -39.77807617 42.13012695 C-41.27758564 36.16422144 -36.01677939 29.39153394 -33.19995117 24.3293457 C-32.71220215 23.44722412 -32.22445312 22.56510254 -31.72192383 21.65625 C-22.25823626 4.72669557 -19.36554976 0.53490913 0 0 Z " fill="#1E2425" transform="translate(124.324951171875,89.045654296875)"/>
<path d="M0 0 C0.20302734 0.78697266 0.20302734 0.78697266 0.41015625 1.58984375 C2.27341919 8.29535887 4.8293877 14.58844269 7.66235352 20.93334961 C10.3326108 27.12248409 10.7699516 31.26473174 8.35546875 37.6796875 C7.64331723 39.41580457 6.92033487 41.14751184 6.1875 42.875 C5.47189654 44.60124776 4.75704315 46.32780667 4.04296875 48.0546875 C3.6979834 48.88194336 3.35299805 49.70919922 2.99755859 50.56152344 C1.58551591 54.01318332 0.28711616 57.50001852 -1 61 C-15.07417074 57.24485249 -33.25500392 50.55449373 -41.375 37.5625 C-43.10342526 33.77326 -44 31.16968168 -44 27 C-38.62132197 13.90408827 -23.85092756 7.79615471 -11.59375 2.5390625 C-7.42870422 0.96037579 -4.49936037 0 0 0 Z " fill="#202323" transform="translate(62,98)"/>
<path d="M0 0 C1.88125432 7.68196889 2.3658069 15.04522185 2.375 22.9375 C2.39949219 24.04029297 2.42398438 25.14308594 2.44921875 26.27929688 C2.48073635 35.18301977 0.75948931 42.60206391 -4 50.1875 C-9.44996499 53.48018718 -15.45502971 52.83800231 -21.51171875 51.40625 C-33.47906564 47.13361045 -44.00605896 38.76598401 -53 30 C-51.27284511 25.95666051 -48.5403115 22.71211352 -45.8125 19.3125 C-44.88121868 18.14215917 -43.95023408 16.97158217 -43.01953125 15.80078125 C-42.52767334 15.20088379 -42.03581543 14.60098633 -41.52905273 13.98291016 C-39.93398445 11.98141035 -39.93398445 11.98141035 -38.50415039 9.60693359 C-36.13711827 6.01157844 -34.40151103 3.50079828 -30.25952148 2.02075195 C-27.09792091 1.48138588 -24.01374065 1.18933107 -20.8125 1 C-18.67308794 0.8135199 -16.53376097 0.62606029 -14.39453125 0.4375 C-12.98457886 0.34275391 -12.98457886 0.34275391 -11.54614258 0.24609375 C-9.0594772 0.08543332 -9.0594772 0.08543332 -6.9753418 -0.58984375 C-4.43369575 -1.11758635 -2.49390342 -0.62347586 0 0 Z " fill="#1F2324" transform="translate(189,172)"/>
<path d="M0 0 C3.31836357 0.02612885 6.59630681 0.44145005 9.89208984 0.80517578 C12.28751806 1.02657394 14.67918822 1.13163024 17.08203125 1.24609375 C31.79767078 2.25968784 31.79767078 2.25968784 36.515625 6.99609375 C38.93036226 9.904398 40.92591256 13.0371358 42.87548828 16.27001953 C45.03225026 19.58804284 47.94022736 22.25750948 50.734375 25.03515625 C52 27 52 27 51.85546875 29.6015625 C50.6838621 32.88634097 48.86881627 34.11077953 46 36 C45.34 36 44.68 36 44 36 C43.67 36.99 43.34 37.98 43 39 C33.00425184 46.40770174 21.29628147 53.08281948 8.56640625 52.40234375 C4.81629882 51.81442736 3.31891026 51.04356972 1 48 C-3.03362068 40.41064488 -3.56257184 33.53778535 -3.375 25.0625 C-3.37371094 23.95970703 -3.37242188 22.85691406 -3.37109375 21.72070312 C-3.17413909 3.17413909 -3.17413909 3.17413909 0 0 Z " fill="#1F2324" transform="translate(68,172)"/>
<path d="M0 0 C5.65947239 3.75166531 7.29947738 9.63749143 8.625 16 C10.06367015 28.2286963 8.54536906 40.03808425 6 52 C5.67 52.33 5.34 52.66 5 53 C2.56780775 52.97847617 0.19423019 52.6871929 -2.22265625 52.4140625 C-5.19491303 52.08825152 -8.13997203 51.85215384 -11.12109375 51.6484375 C-25.18058736 50.45855826 -25.18058736 50.45855826 -29.81640625 46.7421875 C-31.80394026 43.9235029 -33.37978998 41.04226487 -35 38 C-36.56121842 35.98678157 -38.1659384 34.00653865 -39.8125 32.0625 C-42.28528773 29.09077811 -44.709159 26.11467657 -47 23 C-36.38832944 11.4011973 -16.73400009 -4.11913848 0 0 Z " fill="#1E2526" transform="translate(182,32)"/>
<path d="M0 0 C8.46660971 4.36874461 15.99073722 10.48534165 22.90771484 16.984375 C22.30022919 21.67069288 19.19571776 24.15560738 16.015625 27.40820312 C13.58320226 29.96085968 11.81905744 32.14418663 10.08740234 35.265625 C7.45037263 39.96889877 5.5305653 43.18176214 0.29882812 44.78271484 C-5.86409743 45.98652831 -12.06438202 46.47081376 -18.32714844 46.81396484 C-21.94601903 47.03698901 -25.50163357 47.4886668 -29.09228516 47.984375 C-31.54216084 38.96136621 -32.58794974 30.57243432 -32.52978516 21.234375 C-32.54976563 20.08066406 -32.56974609 18.92695312 -32.59033203 17.73828125 C-32.58595993 10.0696225 -31.81162678 3.29778249 -26.64477539 -2.69433594 C-19.11736185 -9.10074608 -7.62116587 -3.60710984 0 0 Z " fill="#1F2425" transform="translate(97.09228515625,37.015625)"/>
<path d="M0 0 C15.20659276 1.71687338 31.03451262 10.69780453 40.72265625 22.30078125 C43.479627 25.96831115 43.568326 29.55368482 43 34 C36.35620593 47.86530935 19.3214928 54.05406828 5.91796875 59.40625 C4 60 4 60 1 60 C-0.5540382 56.24870219 -2.10209623 52.49499757 -3.64477539 48.73901367 C-4.1698495 47.46295582 -4.69652193 46.18755439 -5.22485352 44.9128418 C-5.98618831 43.07516187 -6.74120938 41.23487028 -7.49609375 39.39453125 C-7.95169678 38.28956299 -8.4072998 37.18459473 -8.87670898 36.04614258 C-10.57693318 31.43547157 -11.41242618 29.1375985 -9.70703125 24.43359375 C-9.0872128 23.09608198 -8.4550749 21.76422912 -7.8125 20.4375 C-4.71922404 13.75250551 -2.1512136 7.05491169 0 0 Z " fill="#1F2324" transform="translate(194,98)"/>
<path d="M0 0 C5.37203167 2.34831559 8.63163727 6.41104133 11.58203125 11.3828125 C13.54414916 17.26916623 13.59901725 23.98516827 11.01953125 29.6953125 C7.69557512 35.43561972 2.85888168 39.31558631 -3.41796875 41.3828125 C-9.5470734 42.17070936 -15.20356459 41.90751674 -20.62890625 38.79296875 C-24.75778902 35.53854369 -27.76212194 31.35035294 -29.41796875 26.3828125 C-30.05333636 18.67507423 -30.32614694 12.58261653 -25.41796875 6.3828125 C-18.10292825 -0.91266906 -10.08271791 -2.57361782 0 0 Z " fill="#03D6FB" transform="translate(136.41796875,107.6171875)"/>
<path d="M0 0 C1 2 1 2 1 6 C3.31 6 5.62 6 8 6 C7.69964844 6.49628906 7.39929687 6.99257812 7.08984375 7.50390625 C5.08516431 11.08514715 4 13.388109 4 17.5625 C6.71901866 26.90912666 12.4188489 32.27747056 20.83007812 37.03515625 C24.82536979 39.15576514 28.89303305 41.10629766 33 43 C32.01 44.98 31.02 46.96 30 49 C28.68 49 27.36 49 26 49 C26 49.66 26 50.32 26 51 C21.23560035 49.6242615 17.25597223 47.56553005 13.125 44.875 C12.51221191 44.47611572 11.89942383 44.07723145 11.26806641 43.66625977 C2.31092134 37.6857486 -3.57145384 31.28563849 -7 21 C-8.19173243 12.77855474 -5.8093781 7.59457661 -1 1 C-0.67 0.67 -0.34 0.34 0 0 Z " fill="#0AD2F3" transform="translate(15,111)"/>
<path d="M0 0 C0.66 0.66 1.32 1.32 2 2 C1.67 2.99 1.34 3.98 1 5 C0.34 5 -0.32 5 -1 5 C-1 5.99 -1 6.98 -1 8 C-2.98 8 -4.96 8 -7 8 C-7 8.66 -7 9.32 -7 10 C-8.32 10.33 -9.64 10.66 -11 11 C-11 11.66 -11 12.32 -11 13 C-13.70942393 13.10861833 -16.414439 13.18758577 -19.125 13.25 C-19.88554688 13.28351563 -20.64609375 13.31703125 -21.4296875 13.3515625 C-26.75986122 13.44346205 -29.81146361 12.61261264 -34 9 C-34.875 6.25 -34.875 6.25 -35 4 C-31.50647908 1.87893373 -31.50647908 1.87893373 -29.21875 2.42578125 C-28.12046875 2.71001953 -28.12046875 2.71001953 -27 3 C-21.38342418 3.41723135 -15.96039749 3.68758174 -10.6875 1.5 C-6.78421459 -0.08777711 -4.16960878 -0.41696088 0 0 Z " fill="#07D5F6" transform="translate(99,221)"/>
<path d="M0 0 C0.66 0 1.32 0 2 0 C3.17314026 2.76825188 4.33870215 5.53928486 5.5 8.3125 C5.83386719 9.09818359 6.16773438 9.88386719 6.51171875 10.69335938 C6.82753906 11.45068359 7.14335937 12.20800781 7.46875 12.98828125 C7.90864258 14.03302612 7.90864258 14.03302612 8.35742188 15.09887695 C9 17 9 17 9 20 C6.6263603 20.50734284 4.25142575 21.00602386 1.875 21.5 C0.87726563 21.71462891 0.87726563 21.71462891 -0.140625 21.93359375 C-4.16056422 22.7612283 -7.89904899 23.15330658 -12 23 C-10.71934046 18.66742047 -9.06867676 15.2511807 -6.5625 11.5 C-4.10287146 7.74394224 -1.87313942 4.07683285 0 0 Z " fill="#1A2B2F" transform="translate(176,141)"/>
<path d="M0 0 C3.9460755 3.45957304 6.15467564 7.45460317 8.625 12 C9.01945312 12.7115625 9.41390625 13.423125 9.8203125 14.15625 C11.61533539 17.40669686 13.35326775 20.6715574 15 24 C12.08293797 23.69088746 9.1663891 23.37784575 6.25 23.0625 C5.425 22.97548828 4.6 22.88847656 3.75 22.79882812 C2.95078125 22.71181641 2.1515625 22.62480469 1.328125 22.53515625 C0.5949707 22.456604 -0.13818359 22.37805176 -0.89355469 22.29711914 C-2.98147994 22.0026123 -4.96552768 21.54882504 -7 21 C-5.62820313 13.51747162 -3.07836721 6.94395046 0 0 Z " fill="#1C2523" transform="translate(78,141)"/>
<path d="M0 0 C7.08076251 -0.40850553 13.19925959 1.09579269 20 3 C19.57534294 10.36072234 17.01651083 16.32137824 14 23 C13.34 23 12.68 23 12 23 C10.77905273 21.31933594 10.77905273 21.31933594 9.43359375 18.984375 C8.94826172 18.14519531 8.46292969 17.30601563 7.96289062 16.44140625 C7.45951172 15.55324219 6.95613281 14.66507813 6.4375 13.75 C5.93025391 12.87730469 5.42300781 12.00460938 4.90039062 11.10546875 C0.8023359 3.95706438 0.8023359 3.95706438 0 0 Z " fill="#212123" transform="translate(164,92)"/>
<path d="M0 0 C-1.62040899 4.58673147 -4.01903483 8.51045287 -6.5625 12.625 C-9.69341548 17.60633569 -9.69341548 17.60633569 -12 23 C-12.99 22.67 -13.98 22.34 -15 22 C-16.38671875 19.015625 -16.38671875 19.015625 -17.6875 15.25 C-18.12449219 14.01765625 -18.56148438 12.7853125 -19.01171875 11.515625 C-19.87762208 8.43533649 -20.22318375 6.16076452 -20 3 C-13.19925959 1.09579269 -7.08076251 -0.40850553 0 0 Z " fill="#192829" transform="translate(92,92)"/>
<path d="M0 0 C8.58 0 17.16 0 26 0 C24.14773715 4.63065711 22.2077809 7.31634748 18.875 10.8125 C18.40707031 11.31458984 17.93914062 11.81667969 17.45703125 12.33398438 C16.31098175 13.56189455 15.15634689 14.78178215 14 16 C9.82421627 14.43895935 7.47638361 11.36042632 4.75 8 C4.06164062 7.18015625 4.06164062 7.18015625 3.359375 6.34375 C0 2.26450893 0 2.26450893 0 0 Z " fill="#1B272B" transform="translate(115,177)"/>
<path d="M0 0 C4.01112541 1.55477109 6.07181964 4.14228789 8.75 7.4375 C9.54921875 8.40558594 10.3484375 9.37367187 11.171875 10.37109375 C13 13 13 13 13 16 C4.75 16 -3.5 16 -12 16 C-10.14773715 11.36934289 -8.2077809 8.68365252 -4.875 5.1875 C-4.40707031 4.68541016 -3.93914062 4.18332031 -3.45703125 3.66601562 C-2.31098175 2.43810545 -1.15634689 1.21821785 0 0 Z " fill="#1C2629" transform="translate(127,63)"/>
<path d="M0 0 C7.08076251 -0.40850553 13.19925959 1.09579269 20 3 C19.67 5.64 19.34 8.28 19 11 C17 8 17 8 16 5 C14.35 4.67 12.7 4.34 11 4 C11.04125 5.051875 11.0825 6.10375 11.125 7.1875 C11.00852125 10.74010173 10.52791932 12.84866641 9 16 C0 5.33333333 0 5.33333333 0 0 Z " fill="#19292A" transform="translate(164,92)"/>
<path d="M0 0 C1.4540625 0.0309375 1.4540625 0.0309375 2.9375 0.0625 C2.9375 0.3925 2.9375 0.7225 2.9375 1.0625 C1.2875 1.0625 -0.3625 1.0625 -2.0625 1.0625 C-3.1898698 8.04263402 -3.24859345 14.92988667 -3.24780273 21.98779297 C-3.25000117 24.18866995 -3.26823426 26.38905435 -3.28710938 28.58984375 C-3.2900419 29.9999983 -3.29202764 31.41015521 -3.29296875 32.8203125 C-3.29707764 34.0902002 -3.30118652 35.36008789 -3.30541992 36.66845703 C-3.07080413 39.9464758 -2.29948349 42.06769787 -1.0625 45.0625 C-1.3925 46.0525 -1.7225 47.0425 -2.0625 48.0625 C-5.91483046 40.31746054 -6.62727499 33.69983323 -6.4375 25.125 C-6.43621094 24.02220703 -6.43492188 22.91941406 -6.43359375 21.78320312 C-6.20361217 0.12660433 -6.20361217 0.12660433 0 0 Z " fill="#08373F" transform="translate(71.0625,171.9375)"/>
<path d="M0 0 C1.32 0 2.64 0 4 0 C4 3.3 4 6.6 4 10 C3.34 10 2.68 10 2 10 C2 22.87 2 35.74 2 49 C-5.2163704 34.56725921 -0.55598417 15.92243359 3 1 C2.01 0.67 1.02 0.34 0 0 Z " fill="#19B8D0" transform="translate(55,167)"/>
<path d="M0 0 C2 2 2 2 2.1953125 3.9453125 C2.13020833 5.96354167 2.06510417 7.98177083 2 10 C2.66 10 3.32 10 4 10 C4.04951788 14.4840341 4.08577526 18.96792239 4.10986328 23.45214844 C4.11990744 24.97691623 4.13354531 26.50166484 4.15087891 28.02636719 C4.17519738 30.22075138 4.18649889 32.41488042 4.1953125 34.609375 C4.20578613 35.92905273 4.21625977 37.24873047 4.22705078 38.60839844 C4.0179275 41.73220559 3.66605136 43.40580238 2 46 C1.34 46 0.68 46 0 46 C0.16242188 44.91976562 0.32484375 43.83953125 0.4921875 42.7265625 C1.16994894 37.27812689 1.149217 31.85841962 1.125 26.375 C1.12306641 25.31990234 1.12113281 24.26480469 1.11914062 23.17773438 C1.07629713 15.41354163 0.76214898 7.73036819 0 0 Z " fill="#07454D" transform="translate(199,170)"/>
<path d="M0 0 C0.33 0 0.66 0 1 0 C1 2.31 1 4.62 1 7 C0.34 7 -0.32 7 -1 7 C-1 7.99 -1 8.98 -1 10 C3.62 10 8.24 10 13 10 C13 8.68 13 7.36 13 6 C12.34 6 11.68 6 11 6 C11.33 4.68 11.66 3.36 12 2 C15.465 7.445 15.465 7.445 19 13 C15.87280954 14.04239682 14.70741726 13.97104316 11.55078125 13.44140625 C10.70322266 13.30283203 9.85566406 13.16425781 8.98242188 13.02148438 C7.66081055 12.79428711 7.66081055 12.79428711 6.3125 12.5625 C5.41982422 12.41490234 4.52714844 12.26730469 3.60742188 12.11523438 C1.40378863 11.74992619 -0.798506 11.37795112 -3 11 C-2.69078116 9.54096742 -2.37751201 8.08279278 -2.0625 6.625 C-1.88847656 5.81289062 -1.71445313 5.00078125 -1.53515625 4.1640625 C-1 2 -1 2 0 0 Z " fill="#112C32" transform="translate(74,151)"/>
<path d="M0 0 C1.32 0.33 2.64 0.66 4 1 C2.02 3.97 2.02 3.97 0 7 C8.25 7 16.5 7 25 7 C25.33 6.34 25.66 5.68 26 5 C26.33 6.32 26.66 7.64 27 9 C17.43 9 7.86 9 -2 9 C-2 7.35 -2 5.7 -2 4 C-1.34 4 -0.68 4 0 4 C0 2.68 0 1.36 0 0 Z " fill="#1CB4CE" transform="translate(115,72)"/>
<path d="M0 0 C1.32 0.33 2.64 0.66 4 1 C2.2633385 2.53604715 0.51017245 4.05345163 -1.25 5.5625 C-2.22453125 6.40941406 -3.1990625 7.25632812 -4.203125 8.12890625 C-7 10 -7 10 -9.09375 10 C-11.47254633 8.75210684 -13.2700671 7.25243849 -15.25 5.4375 C-15.95640625 4.79683594 -16.6628125 4.15617187 -17.390625 3.49609375 C-17.92171875 3.00238281 -18.4528125 2.50867187 -19 2 C-18.34 1.67 -17.68 1.34 -17 1 C-15.02 2.32 -13.04 3.64 -11 5 C-10.67 4.34 -10.34 3.68 -10 3 C-7.98177083 3.09765625 -5.96354167 3.1953125 -3.9453125 3.29296875 C-3.30335938 3.19628906 -2.66140625 3.09960938 -2 3 C-1.34 2.01 -0.68 1.02 0 0 Z " fill="#103338" transform="translate(136,37)"/>
<path d="M0 0 C0 1.32 0 2.64 0 4 C-0.66 4 -1.32 4 -2 4 C-2 3.34 -2 2.68 -2 2 C-2.7734375 2.23009766 -2.7734375 2.23009766 -3.5625 2.46484375 C-12.98010128 4.53249018 -23.41118491 4.1607064 -33 4 C-33 3.67 -33 3.34 -33 3 C-32.29391602 2.91435791 -31.58783203 2.82871582 -30.86035156 2.74047852 C-27.65657933 2.35041056 -24.45329125 1.95649749 -21.25 1.5625 C-20.13882813 1.42779297 -19.02765625 1.29308594 -17.8828125 1.15429688 C-16.27792969 0.95610352 -16.27792969 0.95610352 -14.640625 0.75390625 C-13.65610352 0.63345947 -12.67158203 0.5130127 -11.65722656 0.38891602 C-9.06094133 0.05959144 -9.06094133 0.05959144 -6.81933594 -0.57446289 C-4.35156059 -1.15166799 -2.42839478 -0.60709869 0 0 Z " fill="#0B404A" transform="translate(189,172)"/>
<path d="M0 0 C0.33 0.66 0.66 1.32 1 2 C1.66 2 2.32 2 3 2 C3 2.99 3 3.98 3 5 C17.19 5 31.38 5 46 5 C46 5.33 46 5.66 46 6 C39.78872974 6.12347317 33.57817144 6.21427988 27.3659668 6.2746582 C25.25223348 6.29982363 23.13858735 6.33395926 21.02514648 6.37719727 C17.98920202 6.43775941 14.95440638 6.46618909 11.91796875 6.48828125 C10.97100632 6.51408768 10.02404388 6.5398941 9.04838562 6.56648254 C6.59433929 6.56753489 4.39381942 6.54138654 2 6 C-0.11987305 3.46948242 -0.11987305 3.46948242 -1 1 C-0.67 0.67 -0.34 0.34 0 0 Z " fill="#01292A" transform="translate(104,160)"/>
<path d="M0 0 C-0.3125 1.875 -0.3125 1.875 -1 4 C-4 6 -4 6 -7 6 C-7 6.66 -7 7.32 -7 8 C-11.97504047 11.24900602 -14.88225104 12.49940808 -21 12 C-18.6094991 10.40633273 -16.27350653 9.04189948 -13.75 7.6875 C-10.70118599 6.01637193 -7.85974428 4.25171381 -5.0625 2.1875 C-2 0 -2 0 0 0 Z " fill="#10323A" transform="translate(117,219)"/>
<path d="M0 0 C1.00691895 0.40327515 1.00691895 0.40327515 2.03417969 0.81469727 C6.8627819 2.8505638 6.8627819 2.8505638 8 5.125 C4.75 5.375 4.75 5.375 1 5.125 C-0.3743291 3.83396357 -1.70896357 2.4993291 -3 1.125 C-6.14481791 0.32184346 -6.14481791 0.32184346 -9 0.125 C-9 -0.535 -9 -1.195 -9 -1.875 C-11.31 -1.875 -13.62 -1.875 -16 -1.875 C-16 -1.215 -16 -0.555 -16 0.125 C-17.65 0.125 -19.3 0.125 -21 0.125 C-17.45156842 -6.97186315 -5.52931357 -2.2155306 0 0 Z " fill="#0A353A" transform="translate(92,34.875)"/>
<path d="M0 0 C14.52 0 29.04 0 44 0 C44 0.33 44 0.66 44 1 C29.81 1 15.62 1 1 1 C1 1.99 1 2.98 1 4 C0.01 4 -0.98 4 -2 4 C-1.34 2.68 -0.68 1.36 0 0 Z " fill="#002D30" transform="translate(106,90)"/>
<path d="M0 0 C2.31 0.33 4.62 0.66 7 1 C7 2.32 7 3.64 7 5 C8.32 5.33 9.64 5.66 11 6 C11 6.66 11 7.32 11 8 C12.32 8 13.64 8 15 8 C15 8.66 15 9.32 15 10 C16.65 10 18.3 10 20 10 C20.66 11.32 21.32 12.64 22 14 C13.68840917 11.81273926 6.26982272 6.77483672 0 1 C0 0.67 0 0.34 0 0 Z " fill="#0D3B44" transform="translate(24,139)"/>
<path d="M0 0 C2.5 2.3125 2.5 2.3125 5 5 C5 5.99 5 6.98 5 8 C-3.25 8 -11.5 8 -20 8 C-18 3 -18 3 -16 2 C-15.67 3.32 -15.34 4.64 -15 6 C-9.06 6.33 -3.12 6.66 3 7 C2.01 5.68 1.02 4.36 0 3 C0 2.01 0 1.02 0 0 Z " fill="#033440" transform="translate(135,71)"/>
<path d="M0 0 C4.95 0 9.9 0 15 0 C6.55903392 4.22048304 -3.67449531 4.38677208 -13 4 C-11 2 -11 2 -8.3984375 1.8046875 C-7.40070313 1.82789063 -6.40296875 1.85109375 -5.375 1.875 C-3.87066406 1.90207031 -3.87066406 1.90207031 -2.3359375 1.9296875 C-1.56507813 1.95289063 -0.79421875 1.97609375 0 2 C0 1.34 0 0.68 0 0 Z " fill="#1CC6E0" transform="translate(169,171)"/>
<path d="M0 0 C2.23101647 3.3465247 2.22235336 4.3057227 2.125 8.19140625 C2.10953125 9.21943359 2.0940625 10.24746094 2.078125 11.30664062 C2.02669741 13.44988563 1.97463101 15.59311541 1.921875 17.73632812 C1.82202613 24.4303626 2.37494588 30.49887669 4 37 C1.35290287 35.67645143 1.02549315 34.77340306 0 32 C-0.22705078 28.60839844 -0.22705078 28.60839844 -0.1953125 24.609375 C-0.1924826 23.90476135 -0.18965271 23.20014771 -0.18673706 22.47418213 C-0.17557801 20.2326124 -0.15048193 17.99144814 -0.125 15.75 C-0.11496464 14.22656829 -0.10583976 12.70313029 -0.09765625 11.1796875 C-0.07565291 7.45299414 -0.04115272 3.72653667 0 0 Z " fill="#082C36" transform="translate(53,181)"/>
<path d="M0 0 C0.66 0 1.32 0 2 0 C2.69699552 1.45381897 3.38233866 2.91322953 4.0625 4.375 C4.44535156 5.18710938 4.82820312 5.99921875 5.22265625 6.8359375 C5.47917969 7.55007812 5.73570312 8.26421875 6 9 C5.67 9.66 5.34 10.32 5 11 C3.68 9.68 2.36 8.36 1 7 C0.34 7.66 -0.32 8.32 -1 9 C-1.99 9 -2.98 9 -4 9 C-2.94124926 5.59687262 -1.99097846 2.98646769 0 0 Z " fill="#103642" transform="translate(176,141)"/>
<path d="M0 0 C8.58 0 17.16 0 26 0 C25.67 0.99 25.34 1.98 25 3 C24.67 2.34 24.34 1.68 24 1 C14.595 1.495 14.595 1.495 5 2 C5 3.65 5 5.3 5 7 C3.29115995 5.37660195 1.62553283 3.70680947 0 2 C0 1.34 0 0.68 0 0 Z " fill="#023743" transform="translate(115,177)"/>
<path d="M0 0 C0.33 0 0.66 0 1 0 C1.0544452 2.20805524 1.09299283 4.41650554 1.125 6.625 C1.14820313 7.85476562 1.17140625 9.08453125 1.1953125 10.3515625 C1.0030428 13.94316041 0.30258556 16.66661175 -1 20 C-2.258125 20.04125 -3.51625 20.0825 -4.8125 20.125 C-5.52019531 20.14820312 -6.22789062 20.17140625 -6.95703125 20.1953125 C-9 20 -9 20 -12 18 C-9.03 18 -6.06 18 -3 18 C-2.01 12.06 -1.02 6.12 0 0 Z " fill="#1AB7CD" transform="translate(190,66)"/>
<path d="M0 0 C0.33 0.99 0.66 1.98 1 3 C7.93 3.495 7.93 3.495 15 4 C15 4.33 15 4.66 15 5 C13.12612523 5.3396019 11.25083303 5.67138691 9.375 6 C8.33085937 6.185625 7.28671875 6.37125 6.2109375 6.5625 C3.09425135 6.98715797 0.14069188 7.07545206 -3 7 C-1.125 1.125 -1.125 1.125 0 0 Z " fill="#0A3542" transform="translate(167,157)"/>
<path d="M0 0 C2.76223278 2.76223278 2.57856291 5.20706617 3 9 C3.66 9 4.32 9 5 9 C5 10.65 5 12.3 5 14 C5.66 14 6.32 14 7 14 C7 15.65 7 17.3 7 19 C7.66 19 8.32 19 9 19 C9.33 19.99 9.66 20.98 10 22 C9.34 22.66 8.68 23.32 8 24 C6.84056892 21.5055582 5.69753709 19.00552218 4.5625 16.5 C4.23701172 15.80390625 3.91152344 15.1078125 3.57617188 14.390625 C1.39462852 9.53275527 0.42471858 5.31197323 0 0 Z " fill="#20C2DC" transform="translate(62,98)"/>
<path d="M0 0 C0.268125 0.639375 0.53625 1.27875 0.8125 1.9375 C1.88667752 4.33131686 1.88667752 4.33131686 5 5 C4.67 5.99 4.34 6.98 4 8 C3.01 7.01 2.02 6.02 1 5 C0.67 6.98 0.34 8.96 0 11 C-0.99 10.67 -1.98 10.34 -3 10 C-3.36923077 4.58461538 -3.36923077 4.58461538 -1.5 1.625 C-1.005 1.08875 -0.51 0.5525 0 0 Z " fill="#202329" transform="translate(177,147)"/>
<path d="M0 0 C1.65 0 3.3 0 5 0 C5.33 0.66 5.66 1.32 6 2 C5.01 2.495 5.01 2.495 4 3 C3.34786708 5.02463255 3.34786708 5.02463255 3 7 C3.66 7 4.32 7 5 7 C7.10865385 10.47307692 7.10865385 10.47307692 6.55859375 13.140625 C6.28208984 14.06101563 6.28208984 14.06101563 6 15 C4.80017556 13.07010782 3.61547182 11.13080772 2.4375 9.1875 C1.44556641 7.56908203 1.44556641 7.56908203 0.43359375 5.91796875 C-1 3 -1 3 0 0 Z " fill="#0C2E34" transform="translate(90,136)"/>
<path d="M0 0 C0.33 1.32 0.66 2.64 1 4 C0.34 4 -0.32 4 -1 4 C-0.91621094 4.79664062 -0.83242187 5.59328125 -0.74609375 6.4140625 C0.26537786 16.93848858 0.26537786 16.93848858 -1 22 C-4.24303336 17.13544996 -3.48145097 11.69368099 -3 6 C-2.25339036 3.58322891 -1.43894811 2.09846599 0 0 Z " fill="#1DC6E3" transform="translate(110,115)"/>
<path d="M0 0 C0.33 0 0.66 0 1 0 C1.02693575 2.12493141 1.04636628 4.24995912 1.0625 6.375 C1.07410156 7.55835937 1.08570313 8.74171875 1.09765625 9.9609375 C1 13 1 13 0 15 C0.66 15 1.32 15 2 15 C2 15.66 2 16.32 2 17 C2.99 17.33 3.98 17.66 5 18 C0.25 17.125 0.25 17.125 -2 16 C-1.85833643 14.08302063 -1.71150416 12.16642277 -1.5625 10.25 C-1.48128906 9.18265625 -1.40007812 8.1153125 -1.31640625 7.015625 C-1.05909227 4.56320038 -0.68187782 2.36078709 0 0 Z " fill="#093D48" transform="translate(200,72)"/>
<path d="M0 0 C0.33 0.66 0.66 1.32 1 2 C0.34 2 -0.32 2 -1 2 C-1.0825 2.78375 -1.165 3.5675 -1.25 4.375 C-2 7 -2 7 -3.75 8.375 C-6.4981783 9.13838286 -8.27958849 8.75566986 -11 8 C-8.80861021 5.64270057 -6.56068027 3.97942902 -3.8125 2.3125 C-3.09707031 1.87550781 -2.38164062 1.43851563 -1.64453125 0.98828125 C-1.10183594 0.66214844 -0.55914062 0.33601562 0 0 Z " fill="#0D3639" transform="translate(233,151)"/>
<path d="M0 0 C4.91869001 4.76002259 4.91869001 4.76002259 5.25 9.8125 C5.2222274 13.62428913 4.32100312 15.90532917 2 19 C0 16 0 16 0 14 C0.99 14 1.98 14 3 14 C3 11.03 3 8.06 3 5 C2.01 4.67 1.02 4.34 0 4 C0 2.68 0 1.36 0 0 Z " fill="#083640" transform="translate(232,118)"/>
<path d="M0 0 C8 9.42857143 8 9.42857143 8 14 C6.35 14 4.7 14 3 14 C3.33 11.69 3.66 9.38 4 7 C2.35 6.67 0.7 6.34 -1 6 C-0.67 4.02 -0.34 2.04 0 0 Z " fill="#0F363E" transform="translate(159,106)"/>
<path d="M0 0 C0.66 0.33 1.32 0.66 2 1 C1.01 1.33 0.02 1.66 -1 2 C-1 2.66 -1 3.32 -1 4 C-8.92 4 -16.84 4 -25 4 C-25 3.34 -25 2.68 -25 2 C-23.04707031 2.03480469 -23.04707031 2.03480469 -21.0546875 2.0703125 C-19.32813076 2.08907942 -17.60156779 2.10727863 -15.875 2.125 C-15.0190625 2.14175781 -14.163125 2.15851563 -13.28125 2.17578125 C-8.37948908 2.2134871 -4.64874135 1.72336517 0 0 Z " fill="#0C4755" transform="translate(94,231)"/>
<path d="M0 0 C5.28 0 10.56 0 16 0 C16 0.66 16 1.32 16 2 C16.99 2 17.98 2 19 2 C20.42944945 4.35438733 21.08661261 5.48032433 20.625 8.25 C20.315625 9.11625 20.315625 9.11625 20 10 C19.38125 9.05125 18.7625 8.1025 18.125 7.125 C16.18029031 4.05554891 16.18029031 4.05554891 14 2 C11.41935871 1.85502015 8.95056116 1.81322455 6.375 1.875 C5.66859375 1.88402344 4.9621875 1.89304688 4.234375 1.90234375 C2.48943902 1.92592397 0.74467705 1.96179539 -1 2 C-0.67 1.34 -0.34 0.68 0 0 Z " fill="#1BC1DD" transform="translate(168,31)"/>
<path d="M0 0 C2.75101957 2.75101957 2.68248934 5.02938969 3.046875 8.80078125 C3 11 3 11 1.5625 13.5625 C1.046875 14.036875 0.53125 14.51125 0 15 C-0.75612577 9.76528314 -1.2063366 5.22745859 0 0 Z " fill="#11323B" transform="translate(69,120)"/>
<path d="M0 0 C6.0546875 -0.1953125 6.0546875 -0.1953125 8 0 C8.66 0.66 9.32 1.32 10 2 C8.02 2.33 6.04 2.66 4 3 C4.33 4.98 4.66 6.96 5 9 C0.57142857 3.85714286 0.57142857 3.85714286 0 0 Z " fill="#0B414E" transform="translate(164,92)"/>
<path d="M0 0 C0.66 0 1.32 0 2 0 C2 0.66 2 1.32 2 2 C7.28 1.34 12.56 0.68 18 0 C17.01 0.495 17.01 0.495 16 1 C16 1.66 16 2.32 16 3 C7.585 3.495 7.585 3.495 -1 4 C-0.67 2.68 -0.34 1.36 0 0 Z " fill="#14B8D1" transform="translate(162,162)"/>
<path d="M0 0 C0.33 0.99 0.66 1.98 1 3 C-0.98 4.98 -2.96 6.96 -5 9 C-4.67 9.99 -4.34 10.98 -4 12 C-6.97 11.67 -9.94 11.34 -13 11 C-11.04297985 9.6953199 -9.06417543 8.42257633 -7.0625 7.1875 C-4.06267968 5.0447712 -2.14579544 2.97110138 0 0 Z " fill="#0B3D43" transform="translate(146,138)"/>
<path d="M0 0 C0.66 0 1.32 0 2 0 C1.44894091 3.9492568 0.61064629 7.34920174 -1 11 C-1.66 11 -2.32 11 -3 11 C-6 6.61538462 -6 6.61538462 -6 4 C-3.03 4.495 -3.03 4.495 0 5 C0 3.35 0 1.7 0 0 Z " fill="#0B3442" transform="translate(179,104)"/>
<path d="M0 0 C1.15628906 0.00515625 2.31257813 0.0103125 3.50390625 0.015625 C4.65761719 0.01046875 5.81132812 0.0053125 7 0 C10.06640625 0.265625 10.06640625 0.265625 13.06640625 2.265625 C6.85316127 2.99593408 1.22541868 3.49742749 -4.93359375 2.265625 C-2.93359375 0.265625 -2.93359375 0.265625 0 0 Z " fill="#1FCAE2" transform="translate(123.93359375,106.734375)"/>
<path d="M0 0 C0.33 0 0.66 0 1 0 C1.66 5.28 2.32 10.56 3 16 C1.35 16.33 -0.3 16.66 -2 17 C-1.34 16.67 -0.68 16.34 0 16 C0 10.72 0 5.44 0 0 Z " fill="#0B404B" transform="translate(55,72)"/>
<path d="M0 0 C1.65 0 3.3 0 5 0 C2.53367876 4.22797927 2.53367876 4.22797927 0 6 C-4.04568254 6.53661849 -7.94217941 6.34947737 -12 6 C-12 5.67 -12 5.34 -12 5 C-8.7 5 -5.4 5 -2 5 C-2.33 4.01 -2.66 3.02 -3 2 C-2.01 2 -1.02 2 0 2 C0 1.34 0 0.68 0 0 Z " fill="#0D323B" transform="translate(182,218)"/>
<path d="M0 0 C6.27 0 12.54 0 19 0 C18.67 1.65 18.34 3.3 18 5 C17.01 5.66 16.02 6.32 15 7 C15.33 5.35 15.66 3.7 16 2 C10.72 1.67 5.44 1.34 0 1 C0 0.67 0 0.34 0 0 Z " fill="#0E2E30" transform="translate(120,178)"/>
<path d="M0 0 C2.475 0.495 2.475 0.495 5 1 C4.34 6.28 3.68 11.56 3 17 C2.67 17 2.34 17 2 17 C2 12.05 2 7.1 2 2 C1.34 2 0.68 2 0 2 C0 1.34 0 0.68 0 0 Z " fill="#094247" transform="translate(53,167)"/>
<path d="M0 0 C0.33 0.66 0.66 1.32 1 2 C0.67 2.99 0.34 3.98 0 5 C0.66 5 1.32 5 2 5 C1.67 6.98 1.34 8.96 1 11 C-0.65 9.68 -2.3 8.36 -4 7 C-2.79618552 4.50638429 -1.54571278 2.31856917 0 0 Z " fill="#0D3339" transform="translate(140,195)"/>
<path d="M0 0 C0.66 0 1.32 0 2 0 C1.34 2.31 0.68 4.62 0 7 C-3.3 6.01 -6.6 5.02 -10 4 C-10 3.67 -10 3.34 -10 3 C-6.535 2.505 -6.535 2.505 -3 2 C-3 2.66 -3 3.32 -3 4 C-2.01 4 -1.02 4 0 4 C0 2.68 0 1.36 0 0 Z " fill="#0B414C" transform="translate(61,152)"/>
<path d="M0 0 C-1.1858237 3.37503669 -2.27573689 5.64722731 -5 8 C-4.67 6.02 -4.34 4.04 -4 2 C-6.64 2 -9.28 2 -12 2 C-8.09971775 -0.60018816 -4.52565431 -0.15085514 0 0 Z " fill="#09464D" transform="translate(92,92)"/>
<path d="M0 0 C2.3125 0.1875 2.3125 0.1875 5 1 C6.8125 3.5625 6.8125 3.5625 8 6 C7.0925 5.835 6.185 5.67 5.25 5.5 C1.88912497 4.89862854 1.88912497 4.89862854 -2 5 C-2 4.34 -2 3.68 -2 3 C-1.34 3 -0.68 3 0 3 C0 2.01 0 1.02 0 0 Z " fill="#11292B" transform="translate(146,91)"/>
<path d="M0 0 C4.48525648 0.656379 8.66914029 1.70074209 13 3 C13.33 4.32 13.66 5.64 14 7 C9.25981099 5.16508812 4.63586749 3.08058541 0 1 C0 0.67 0 0.34 0 0 Z " fill="#18C1D1" transform="translate(90,34)"/>
<path d="M0 0 C0.66 0.33 1.32 0.66 2 1 C-0.05741062 4.64003417 -1.26933695 6.663895 -5.125 8.4375 C-8 9 -8 9 -10 8 C-9.36191406 7.59007812 -8.72382812 7.18015625 -8.06640625 6.7578125 C-7.24011719 6.21898437 -6.41382812 5.68015625 -5.5625 5.125 C-4.73878906 4.59132812 -3.91507812 4.05765625 -3.06640625 3.5078125 C-0.88961129 2.16165694 -0.88961129 2.16165694 0 0 Z " fill="#19C2E6" transform="translate(112,208)"/>
<path d="M0 0 C2.79872437 2.52788007 4.45773019 4.20411134 5 8 C4.34 8 3.68 8 3 8 C2.34 7.34 1.68 6.68 1 6 C0.01 7.32 -0.98 8.64 -2 10 C-3.39195915 5.82412255 -1.82323219 3.86525224 0 0 Z " fill="#0A3B49" transform="translate(78,141)"/>
<path d="M0 0 C2.0625 2.0625 2.0625 2.0625 4 5 C3.91874296 9.63165151 3.15176169 12.57417207 0 16 C0.185625 15.030625 0.37125 14.06125 0.5625 13.0625 C1.21856047 8.61586794 0.65134866 4.41915017 0 0 Z " fill="#0B3547" transform="translate(167,120)"/>
<path d="M0 0 C0.33 0 0.66 0 1 0 C1 1.98 1 3.96 1 6 C0.34 6 -0.32 6 -1 6 C-1 7.32 -1 8.64 -1 10 C-1.66 10 -2.32 10 -3 10 C-3 11.98 -3 13.96 -3 16 C-3.66 15.67 -4.32 15.34 -5 15 C-4.43174347 9.45949887 -2.37113483 4.96284034 0 0 Z " fill="#074551" transform="translate(188,115)"/>
<path d="M0 0 C0 0.66 0 1.32 0 2 C-5.36000789 4.25684543 -9.1977825 5.36263859 -15 5 C-12.58923344 3.39282229 -10.71900755 2.38457485 -8.0625 1.375 C-7.39347656 1.11460938 -6.72445312 0.85421875 -6.03515625 0.5859375 C-4 0 -4 0 0 0 Z " fill="#0B444D" transform="translate(62,98)"/>
<path d="M0 0 C-1.62249941 0.83819158 -3.24808497 1.6704116 -4.875 2.5 C-6.23238281 3.19609375 -6.23238281 3.19609375 -7.6171875 3.90625 C-10 5 -10 5 -12 5 C-12 4.34 -12 3.68 -12 3 C-11.01 3 -10.02 3 -9 3 C-9 2.01 -9 1.02 -9 0 C-5.5657338 -0.85856655 -3.38317487 -0.97591583 0 0 Z " fill="#19C8DC" transform="translate(223,158)"/>
<path d="M0 0 C0.99 0.33 1.98 0.66 3 1 C-0.67557852 5.00972202 -4.18966896 7.45335415 -9 10 C-9 9.01 -9 8.02 -9 7 C-7.35 6.67 -5.7 6.34 -4 6 C-4 5.01 -4 4.02 -4 3 C-2.68 3 -1.36 3 0 3 C0 2.01 0 1.02 0 0 Z " fill="#1EBFDD" transform="translate(236,145)"/>
<path d="M0 0 C0 0.33 0 0.66 0 1 C-4.33692137 2.58667855 -8.42513268 3.41774416 -13 4 C-14.66934283 4.31966139 -16.3373217 4.64731066 -18 5 C-12.39884772 0.26056345 -7.05353749 -0.24322543 0 0 Z " fill="#1DB5D3" transform="translate(175,22)"/>
<path d="M0 0 C0.33 1.32 0.66 2.64 1 4 C0.34 4 -0.32 4 -1 4 C-2.41377341 6.63904371 -3.37240135 9.07120629 -4 12 C-5.65 11.67 -7.3 11.34 -9 11 C-7.88625 9.948125 -7.88625 9.948125 -6.75 8.875 C-4.02182777 6.02281994 -2.08697046 3.3236937 0 0 Z " fill="#0D3241" transform="translate(196,222)"/>
<path d="M0 0 C0.33 0 0.66 0 1 0 C1 2.31 1 4.62 1 7 C0.34 7 -0.32 7 -1 7 C-1 7.99 -1 8.98 -1 10 C1.97 10.495 1.97 10.495 5 11 C1.90645403 11.99435406 0.09720845 11.87840996 -3 11 C-2.69078116 9.54096742 -2.37751201 8.08279278 -2.0625 6.625 C-1.88847656 5.81289062 -1.71445313 5.00078125 -1.53515625 4.1640625 C-1 2 -1 2 0 0 Z " fill="#074D58" transform="translate(74,151)"/>
<path d="M0 0 C0.33 0 0.66 0 1 0 C0.98839844 0.58007812 0.97679687 1.16015625 0.96484375 1.7578125 C0.91237826 6.2998246 1.08248937 10.52713569 2 15 C0 14 0 14 -1.1875 11.9375 C-2.30010687 7.91499826 -1.75167952 5.10007013 -1 1 C-0.67 0.67 -0.34 0.34 0 0 Z " fill="#0A3E48" transform="translate(20,121)"/>
<path d="M0 0 C0.66 0.33 1.32 0.66 2 1 C-0.3107221 8.5273523 -0.3107221 8.5273523 -3.1875 10.5 C-3.785625 10.665 -4.38375 10.83 -5 11 C-3.77472971 6.94718288 -2.30119506 3.55639236 0 0 Z " fill="#103542" transform="translate(96,105)"/>
<path d="M0 0 C2.64752004 2.57784846 4.94432065 4.91648098 7 8 C5.02 8 3.04 8 1 8 C0.67 5.36 0.34 2.72 0 0 Z " fill="#16C9E3" transform="translate(119,184)"/>
<path d="M0 0 C0.66 0.33 1.32 0.66 2 1 C2.10884119 2.41493551 2.18597617 3.83232943 2.25 5.25 C2.29640625 6.03890625 2.3428125 6.8278125 2.390625 7.640625 C2 10 2 10 -2 14 C-1.34 9.38 -0.68 4.76 0 0 Z " fill="#063940" transform="translate(149,124)"/>
<path d="M0 0 C2.475 0.495 2.475 0.495 5 1 C5 1.66 5 2.32 5 3 C6.32 3.33 7.64 3.66 9 4 C9.33 5.32 9.66 6.64 10 8 C8.51714758 7.04737966 7.03881799 6.08771595 5.5625 5.125 C4.73878906 4.59132812 3.91507813 4.05765625 3.06640625 3.5078125 C1 2 1 2 0 0 Z " fill="#1CC5D6" transform="translate(19,148)"/>
<path d="M0 0 C3.32532111 2.69192661 4.52454943 6.06546515 6 10 C6 10.99 6 11.98 6 13 C5.34 13 4.68 13 4 13 C0.71428571 4.57142857 0.71428571 4.57142857 0 0 Z " fill="#23BBD5" transform="translate(183,130)"/>
<path d="M0 0 C0.33 0 0.66 0 1 0 C1 2.97 1 5.94 1 9 C0.67 9 0.34 9 0 9 C-0.33 10.65 -0.66 12.3 -1 14 C-1.33 14 -1.66 14 -2 14 C-2.05437607 12.41705218 -2.09296271 10.83355744 -2.125 9.25 C-2.14820313 8.36828125 -2.17140625 7.4865625 -2.1953125 6.578125 C-1.99139502 3.8864142 -1.36551721 2.30095026 0 0 Z " fill="#1CBAD6" transform="translate(10,118)"/>
<path d="M0 0 C2.64 0.33 5.28 0.66 8 1 C7.67 3.64 7.34 6.28 7 9 C5 6 5 6 4 3 C2.00334686 1.31461399 2.00334686 1.31461399 0 0 Z " fill="#084249" transform="translate(176,94)"/>
<path d="M0 0 C0.66 0.33 1.32 0.66 2 1 C1.37619308 2.41719242 0.7508997 3.8337306 0.125 5.25 C-0.22304688 6.03890625 -0.57109375 6.8278125 -0.9296875 7.640625 C-1.90413905 9.78868608 -2.92986429 11.89829202 -4 14 C-4.28571429 5.42857143 -4.28571429 5.42857143 -2 2 C-1.34 2 -0.68 2 0 2 C0 1.34 0 0.68 0 0 Z " fill="#073538" transform="translate(59,30)"/>
<path d="M0 0 C0.99 0 1.98 0 3 0 C2.67 2.31 2.34 4.62 2 7 C1.01 7.33 0.02 7.66 -1 8 C-2.2077558 4.37673261 -1.54311128 3.35853631 0 0 Z " fill="#132A26" transform="translate(186,210)"/>
<path d="M0 0 C0.93423645 3.01031744 1.04449911 3.86650268 0 7 C-0.99 7.33 -1.98 7.66 -3 8 C-3.33 8.66 -3.66 9.32 -4 10 C-4.66 10 -5.32 10 -6 10 C-4.34832443 6.4213696 -2.21713508 3.25179812 0 0 Z " fill="#0C333B" transform="translate(154,177)"/>
<path d="M0 0 C0 0.66 0 1.32 0 2 C-1.3303125 2.433125 -1.3303125 2.433125 -2.6875 2.875 C-5.50382424 3.83148748 -8.25083156 4.86798946 -11 6 C-11.33 5.34 -11.66 4.68 -12 4 C-10.75539217 3.32332002 -9.50403104 2.65905281 -8.25 2 C-7.55390625 1.62875 -6.8578125 1.2575 -6.140625 0.875 C-4 0 -4 0 0 0 Z " fill="#1EC3DC" transform="translate(46,93)"/>
<path d="M0 0 C1.25541557 3.76624671 0.37061958 5.37188934 -1 9 C-2.32 7.68 -3.64 6.36 -5 5 C-3.35 3.35 -1.7 1.7 0 0 Z " fill="#0D373E" transform="translate(140,50)"/>
<path d="M0 0 C5.28 0.33 10.56 0.66 16 1 C16 1.33 16 1.66 16 2 C13.7089095 2.19441368 11.41709663 2.38033135 9.125 2.5625 C7.21074219 2.71912109 7.21074219 2.71912109 5.2578125 2.87890625 C2 3 2 3 0 2 C0 1.34 0 0.68 0 0 Z " fill="#15535E" transform="translate(165,233)"/>
<path d="M0 0 C-0.3125 1.875 -0.3125 1.875 -1 4 C-4.22791555 6.1519437 -5.28400809 6.20086443 -9 6 C-3.28571429 0 -3.28571429 0 0 0 Z " fill="#0E3B40" transform="translate(117,219)"/>
<path d="M0 0 C2.52588702 2.36292656 3.88820837 3.66462511 5 7 C2.03 6.67 -0.94 6.34 -4 6 C-2.68 5.67 -1.36 5.34 0 5 C0 3.35 0 1.7 0 0 Z " fill="#064249" transform="translate(88,158)"/>
<path d="M0 0 C0.99 0.33 1.98 0.66 3 1 C3 2.32 3 3.64 3 5 C3.66 5 4.32 5 5 5 C5 6.32 5 7.64 5 9 C4.34 9 3.68 9 3 9 C3 8.01 3 7.02 3 6 C2.34 6 1.68 6 1 6 C0.67 4.02 0.34 2.04 0 0 Z " fill="#252020" transform="translate(82,152)"/>
<path d="M0 0 C0.66 0.99 1.32 1.98 2 3 C1.2884375 3.61875 1.2884375 3.61875 0.5625 4.25 C-1.16266518 6.182185 -1.56584875 7.48192275 -2 10 C-2.99 10 -3.98 10 -5 10 C-3.66511872 6.40608886 -2.03977277 3.24509304 0 0 Z " fill="#1BBDD8" transform="translate(165,140)"/>
<path d="M0 0 C0.99 0 1.98 0 3 0 C3 1.32 3 2.64 3 4 C3.66 4 4.32 4 5 4 C5.66 5.98 6.32 7.96 7 10 C6.01 10.495 6.01 10.495 5 11 C3.35 7.37 1.7 3.74 0 0 Z " fill="#19C5E0" transform="translate(164,113)"/>
<path d="M0 0 C0.66 0.33 1.32 0.66 2 1 C1.3125 3.4375 1.3125 3.4375 0 6 C-2.625 6.8125 -2.625 6.8125 -5 7 C-3.47793991 4.37098712 -2.15634036 2.15634036 0 0 Z " fill="#0C373E" transform="translate(26,114)"/>
<path d="M0 0 C5.75 0.75 5.75 0.75 8 3 C7.030625 3.12375 6.06125 3.2475 5.0625 3.375 C4.051875 3.58125 3.04125 3.7875 2 4 C1.67 4.66 1.34 5.32 1 6 C0.34 6 -0.32 6 -1 6 C-0.67 4.02 -0.34 2.04 0 0 Z " fill="#083D47" transform="translate(194,98)"/>
<path d="M0 0 C4.96916636 0.51405169 9.29026351 1.23384882 14 3 C12.328125 4.1171875 12.328125 4.1171875 10 5 C7.421875 4.3203125 7.421875 4.3203125 4.75 3.125 C3.85796875 2.73570313 2.9659375 2.34640625 2.046875 1.9453125 C1.37140625 1.63335937 0.6959375 1.32140625 0 1 C0 0.67 0 0.34 0 0 Z " fill="#0D424C" transform="translate(205,90)"/>
<path d="M0 0 C3.72433382 1.2125738 7.37802806 2.50859979 11 4 C10.67 5.32 10.34 6.64 10 8 C8.33055479 6.85821872 6.6645052 5.71147095 5 4.5625 C4.071875 3.92441406 3.14375 3.28632812 2.1875 2.62890625 C1.465625 2.09136719 0.74375 1.55382812 0 1 C0 0.67 0 0.34 0 0 Z " fill="#09383B" transform="translate(106,30)"/>
<path d="M0 0 C3.53600465 1.91135386 5.78972846 3.62642766 8 7 C6.68 6.67 5.36 6.34 4 6 C4 5.34 4 4.68 4 4 C2.68 4.33 1.36 4.66 0 5 C0 3.35 0 1.7 0 0 Z " fill="#0B3B3B" transform="translate(224,111)"/>
<path d="M0 0 C0 2 0 2 -1.0625 3.5625 C-3.86337489 5.64056847 -6.58791584 5.67810527 -10 6 C-2.6 0 -2.6 0 0 0 Z " fill="#0C363B" transform="translate(157,39)"/>
<path d="M0 0 C3.28788824 3.11016455 5.83735988 6.01618925 8 10 C7.34 10 6.68 10 6 10 C6 9.34 6 8.68 6 8 C4.68 7.67 3.36 7.34 2 7 C1.34 4.69 0.68 2.38 0 0 Z " fill="#084146" transform="translate(107,185)"/>
<path d="M0 0 C4 2 4 2 5.3125 4.4375 C6 7 6 7 5 10 C3.35 6.7 1.7 3.4 0 0 Z " fill="#1AC3DB" transform="translate(82,146)"/>
<path d="M0 0 C0.33 0.99 0.66 1.98 1 3 C-1.31 4.98 -3.62 6.96 -6 9 C-5.67 7.02 -5.34 5.04 -5 3 C-3.35 2.67 -1.7 2.34 0 2 C0 1.34 0 0.68 0 0 Z " fill="#0C383D" transform="translate(119,54)"/>
<path d="M0 0 C-2.35277269 2.72426311 -4.62496331 3.8141763 -8 5 C-8.33 4.34 -8.66 3.68 -9 3 C-8.34 3 -7.68 3 -7 3 C-7 2.34 -7 1.68 -7 1 C-4.53721199 -0.231394 -2.7204945 -0.07159196 0 0 Z " fill="#18C4DE" transform="translate(108,224)"/>
<path d="M0 0 C3.40320742 1.01176437 4.75725331 1.64843582 6.8125 4.625 C7.204375 5.40875 7.59625 6.1925 8 7 C4.66272214 5.82744291 2.22562513 4.81131596 0 2 C0 1.34 0 0.68 0 0 Z " fill="#23BAE1" transform="translate(111,140)"/>
<path d="M0 0 C0.99 0 1.98 0 3 0 C4.4783226 2.95664519 4.06032783 5.74229737 4 9 C1.3144406 6.3144406 0.93950026 3.62378672 0 0 Z " fill="#0F2C3D" transform="translate(187,136)"/>
<path d="M0 0 C0 0.99 0 1.98 0 3 C-1.98 3.99 -1.98 3.99 -4 5 C-4 5.99 -4 6.98 -4 8 C-5.65 8 -7.3 8 -9 8 C-6.17493137 5.0702992 -3.21203935 2.49825283 0 0 Z " fill="#18B5CE" transform="translate(136,40)"/>
<path d="M0 0 C0 0.66 0 1.32 0 2 C-0.99 2 -1.98 2 -3 2 C-3 2.66 -3 3.32 -3 4 C-6 6 -6 6 -8.1875 5.625 C-8.785625 5.41875 -9.38375 5.2125 -10 5 C-8.71186658 4.16121545 -7.41936744 3.32913217 -6.125 2.5 C-5.40570313 2.0359375 -4.68640625 1.571875 -3.9453125 1.09375 C-2 0 -2 0 0 0 Z " fill="#1DBFD2" transform="translate(157,27)"/>
<path d="M0 0 C0.33 0.99 0.66 1.98 1 3 C0.67 3.66 0.34 4.32 0 5 C0.99 4.67 1.98 4.34 3 4 C3 4.66 3 5.32 3 6 C-2.75 5.25 -2.75 5.25 -5 3 C-3.35 2.01 -1.7 1.02 0 0 Z " fill="#142D2B" transform="translate(105,24)"/>
<path d="M0 0 C0.66 0.33 1.32 0.66 2 1 C2 1.99 2 2.98 2 4 C0.35 3.67 -1.3 3.34 -3 3 C-3 3.66 -3 4.32 -3 5 C-3.99 4.67 -4.98 4.34 -6 4 C-4.02610343 2.02610343 -2.56269497 1.04109483 0 0 Z " fill="#123D40" transform="translate(217,160)"/>
<path d="M0 0 C0.33 0.66 0.66 1.32 1 2 C0.0625 4.625 0.0625 4.625 -1 7 C-2.32 6.67 -3.64 6.34 -5 6 C-3.35 4.02 -1.7 2.04 0 0 Z " fill="#0B424B" transform="translate(124,66)"/>
<path d="M0 0 C0.66 0.33 1.32 0.66 2 1 C-0.475 4.465 -0.475 4.465 -3 8 C-4.03348696 4.89953913 -4.17755913 3.94389782 -3 1 C-2.01 0.67 -1.02 0.34 0 0 Z " fill="#0B3136" transform="translate(111,63)"/>
<path d="M0 0 C2.31 0 4.62 0 7 0 C4.29811996 1.80125336 2.06942297 3.00243753 -1 4 C-1.99 3.67 -2.98 3.34 -4 3 C-2.68 2.67 -1.36 2.34 0 2 C0 1.34 0 0.68 0 0 Z " fill="#1FC3E8" transform="translate(92,229)"/>
<path d="M0 0 C2.64 0.33 5.28 0.66 8 1 C7.67 2.65 7.34 4.3 7 6 C5.83054208 5.19152271 4.66449539 4.37810888 3.5 3.5625 C2.8503125 3.11003906 2.200625 2.65757812 1.53125 2.19140625 C1.0259375 1.79824219 0.520625 1.40507812 0 1 C0 0.67 0 0.34 0 0 Z " fill="#18C2DC" transform="translate(136,215)"/>
<path d="M0 0 C0.66 0.33 1.32 0.66 2 1 C1.25 3.4375 1.25 3.4375 0 6 C-2.125 6.8125 -2.125 6.8125 -4 7 C-2.68 4.69 -1.36 2.38 0 0 Z " fill="#12CCE3" transform="translate(142,176)"/>
<path d="M0 0 C3.36720387 1.39332574 4.9859524 2.9789286 7 6 C6.67 6.66 6.34 7.32 6 8 C4.99403703 7.0479279 3.99538437 6.08812654 3 5.125 C2.443125 4.59132813 1.88625 4.05765625 1.3125 3.5078125 C0 2 0 2 0 0 Z " fill="#24B5D7" transform="translate(140,111)"/>
<path d="M0 0 C2 3 2 3 2 7 C2.66 7 3.32 7 4 7 C4 7.99 4 8.98 4 10 C3.01 9.67 2.02 9.34 1 9 C0.234375 7.1875 0.234375 7.1875 -0.25 5 C-0.42015625 4.278125 -0.5903125 3.55625 -0.765625 2.8125 C-0.84296875 2.214375 -0.9203125 1.61625 -1 1 C-0.67 0.67 -0.34 0.34 0 0 Z " fill="#063A46" transform="translate(76,105)"/>
<path d="M0 0 C3.3 0 6.6 0 10 0 C10 0.33 10 0.66 10 1 C7.03 1 4.06 1 1 1 C1 1.99 1 2.98 1 4 C0.01 4 -0.98 4 -2 4 C-1.34 2.68 -0.68 1.36 0 0 Z " fill="#06353F" transform="translate(106,90)"/>
<path d="M0 0 C0.66 0.99 1.32 1.98 2 3 C1.071875 3.4021875 1.071875 3.4021875 0.125 3.8125 C-2.2995233 4.95556848 -2.2995233 4.95556848 -4 8 C-4.66 7.67 -5.32 7.34 -6 7 C-4.02 4.69 -2.04 2.38 0 0 Z " fill="#15C3D5" transform="translate(116,60)"/>
<path d="M0 0 C0.66 0.33 1.32 0.66 2 1 C0.02 3.97 0.02 3.97 -2 7 C-3.32 6.67 -4.64 6.34 -6 6 C-4.02 4.02 -2.04 2.04 0 0 Z " fill="#1AC8E3" transform="translate(67,24)"/>
<path d="M0 0 C0.66 0.33 1.32 0.66 2 1 C1.6875 3.375 1.6875 3.375 1 6 C0.01 6.66 -0.98 7.32 -2 8 C-1.47731534 5.23723823 -0.89130413 2.6739124 0 0 Z " fill="#0C424B" transform="translate(118,198)"/>
<path d="M0 0 C0.33 0.66 0.66 1.32 1 2 C1.66 2 2.32 2 3 2 C3 2.99 3 3.98 3 5 C4.65 5 6.3 5 8 5 C8 5.33 8 5.66 8 6 C5.1875 6.3125 5.1875 6.3125 2 6 C0.125 3.5 0.125 3.5 -1 1 C-0.67 0.67 -0.34 0.34 0 0 Z " fill="#05353A" transform="translate(104,160)"/>
<path d="M0 0 C0.33 0 0.66 0 1 0 C1 2.64 1 5.28 1 8 C0.34 8 -0.32 8 -1 8 C-1.33 8.66 -1.66 9.32 -2 10 C-1.54177532 6.53058454 -1.10868317 3.32604951 0 0 Z " fill="#1FBDDF" transform="translate(64,148)"/>
<path d="M0 0 C2.9719385 1.12451727 5.33440687 2.22293791 8 4 C2.25 4.125 2.25 4.125 0 3 C0 2.01 0 1.02 0 0 Z " fill="#11CADF" transform="translate(36,149)"/>
<path d="M0 0 C0.66 0.33 1.32 0.66 2 1 C0.68 3.31 -0.64 5.62 -2 8 C-3.231394 5.53721199 -3.07159196 3.7204945 -3 1 C-2.01 0.67 -1.02 0.34 0 0 Z " fill="#0E2F3B" transform="translate(163,140)"/>
</svg>
